<?xml version="1.0" encoding="UTF-8" standalone="no"?>
<!-- Created with Inkscape (http://www.inkscape.org/) -->

<svg
   width="162.30051mm"
   height="30.949993mm"
   viewBox="0 0 162.30051 30.949993"
   version="1.1"
   id="svg1"
   xml:space="preserve"
   xmlns="http://www.w3.org/2000/svg"
   xmlns:svg="http://www.w3.org/2000/svg"><defs
     id="defs1" /><g
     id="layer1"
     transform="translate(-18.884184,-133.916)"><g
       id="g38"
       transform="translate(-2.3130043,-4.7802085)"><path
         style="fill:#a0a0a0"
         d="m 157.89627,169.54489 -0.29125,-0.0844 -0.11231,-0.13533 -0.11231,-0.13532 0.0775,-0.13844 0.0775,-0.13844 1.1499,-0.98979 1.14989,-0.98979 0.13129,0.10896 0.13129,0.10896 0.10749,0.35876 0.10749,0.35876 -0.15912,0.41665 -0.15911,0.41664 -0.37774,0.34126 -0.37774,0.34127 -0.31299,0.13077 -0.31299,0.13078 -0.21274,-0.008 -0.21275,-0.008 z m -1.96342,-1.92757 -1.04278,-1.18735 -1.4946,-1.678 -1.49461,-1.678 -0.003,-0.24028 -0.003,-0.24028 1.07642,-0.94831 1.07641,-0.94831 h 0.11467 0.11467 l 0.61266,0.62926 0.61265,0.62925 1.6688,1.85623 1.66879,1.85623 0.39619,0.45864 0.3962,0.45863 v 0.0807 0.0807 l -1.16803,1.03034 -1.16802,1.03033 -0.1604,-0.001 -0.16039,-10e-4 z m 2.92945,-0.9276 0.0377,-0.11315 -0.58928,-0.63491 -0.58928,-0.63491 -1.76825,-1.9787 -1.76825,-1.9787 h -0.0758 -0.0758 l -0.0543,0.14154 -0.0543,0.14155 0.22038,0.26953 0.22038,0.26953 1.49156,1.65549 1.49156,1.65549 0.60408,0.6862 0.60409,0.6862 0.13397,-0.026 0.13397,-0.026 z m -50.66678,1.10743 -0.11802,-0.0749 0.002,-11.07382 0.002,-11.07382 0.0514,-0.0831 0.0514,-0.0831 h 0.77548 0.77547 l 0.0906,0.11653 0.0906,0.11652 0.0141,0.97884 0.0141,0.97884 0.054,0.25636 0.054,0.25636 0.0625,-8.2e-4 0.0625,-8.2e-4 0.79773,-0.77284 0.79773,-0.77284 0.44812,-0.30244 0.44812,-0.30243 0.52538,-0.26458 0.52537,-0.26458 0.46611,-0.16444 0.46612,-0.16444 0.46611,-0.0861 0.46611,-0.0861 0.88561,-0.0504 0.88562,-0.0504 0.65255,0.11311 0.65256,0.1131 0.5968,0.18254 0.59681,0.18253 0.56847,0.28662 0.56848,0.28662 0.52343,0.35505 0.52342,0.35504 0.71864,0.71864 0.71863,0.71863 0.44159,0.66148 0.44159,0.66148 0.16681,0.36001 0.16681,0.36 0.22729,0.65055 0.22729,0.65054 0.13456,0.76068 0.13457,0.76067 0.002,0.50712 0.002,0.50711 -0.10252,0.56494 -0.10253,0.56495 -0.19025,0.65256 -0.19024,0.65255 -0.23776,0.51273 -0.23776,0.51272 -0.43816,0.65256 -0.43816,0.65255 -0.52595,0.57741 -0.52595,0.5774 -0.67278,0.49 -0.67278,0.49001 -0.81134,0.4061 -0.81135,0.40611 -0.30732,0.0911 -0.30733,0.0911 -0.69916,0.13665 -0.69917,0.13665 -0.88561,-0.001 -0.88562,-0.001 -0.74578,-0.18689 -0.74578,-0.18688 -0.65255,-0.30964 -0.65256,-0.30963 -0.52626,-0.33766 -0.52625,-0.33767 -0.7992,-0.7565 -0.79919,-0.7565 -0.0962,0.0594 -0.0962,0.0594 v 4.19563 4.19564 l -0.0965,0.18031 -0.0965,0.18032 -0.7658,-0.001 -0.76581,-0.001 z m 10.20453,-7.61258 0.72728,-0.23257 0.67928,-0.37843 0.67928,-0.37843 0.72524,-0.71743 0.72525,-0.71742 0.3936,-0.67499 0.39361,-0.67498 0.18751,-0.58352 0.1875,-0.58352 0.0846,-0.95174 0.0846,-0.95175 -0.0468,-0.4932 -0.0468,-0.4932 -0.0996,-0.55934 -0.0996,-0.55933 -0.40171,-0.84313 -0.4017,-0.84312 -0.62607,-0.67622 -0.62608,-0.67621 -0.58724,-0.41905 -0.58725,-0.41905 -0.68169,-0.26284 -0.68169,-0.26284 -0.33289,-0.10603 -0.3329,-0.10602 h -1.13097 -1.13097 l -0.21414,0.084 -0.21413,0.084 -0.50875,0.15187 -0.50874,0.15187 -0.60993,0.34036 -0.60992,0.34035 -0.79581,0.79884 -0.79582,0.79883 -0.39041,0.75548 -0.39042,0.75548 -0.16203,0.54963 -0.16203,0.54964 -0.0326,1.53817 -0.0326,1.53817 0.10873,0.37289 0.10873,0.37289 0.23846,0.59346 0.23846,0.59347 0.47433,0.66123 0.47433,0.66123 0.62697,0.52591 0.62697,0.5259 0.68248,0.34641 0.68247,0.3464 0.64823,0.17464 0.64822,0.17464 1.04394,0.006 1.04394,0.006 z m -68.141172,3.45142 -0.816092,-0.12412 -0.489021,-0.11393 -0.489022,-0.11393 -0.744689,-0.2835 -0.744688,-0.28351 -0.513814,-0.27865 -0.513814,-0.27864 -0.697165,-0.4751 -0.697165,-0.47509 -0.797531,-0.79239 -0.797532,-0.79239 -0.481347,-0.64904 -0.481347,-0.64903 -0.464055,-0.88914 -0.464054,-0.88913 -0.198753,-0.50636 -0.198754,-0.50637 -0.232709,-0.79875 -0.232709,-0.79875 -0.133144,-0.74578 -0.133145,-0.74578 -0.0017,-1.30515 -0.0017,-1.30515 0.128983,-0.60591 0.128983,-0.60591 0.154634,-0.58803 0.154635,-0.58804 0.24087,-0.67047 0.24087,-0.67046 0.352946,-0.70414 0.352945,-0.70413 0.588114,-0.88065 0.588115,-0.88065 0.774853,-0.80508 0.774853,-0.80509 0.812634,-0.5795 0.812633,-0.5795 0.804047,-0.40503 0.804047,-0.40503 0.553578,-0.18649 0.553579,-0.18648 0.693267,-0.14463 0.693268,-0.14463 1.211891,-6e-5 1.211892,-6e-5 0.699168,0.13544 0.699168,0.13545 0.605945,0.19976 0.605946,0.19976 0.926938,0.47507 0.926938,0.47507 0.704454,0.53111 0.704455,0.53112 0.860356,0.88973 0.860357,0.88973 0.52069,0.79881 0.520689,0.79881 0.403565,0.86209 0.403564,0.86209 0.185766,0.55933 0.185766,0.55934 0.09807,0.4195 0.09807,0.4195 0.09115,0.4195 0.09115,0.4195 0.118499,0.85961 0.118499,0.85962 -0.112132,0.95822 -0.112132,0.95822 -0.104254,0.55934 -0.104254,0.55933 -0.210334,0.69917 -0.210335,0.69917 -0.279949,0.69917 -0.27995,0.69916 -0.303937,0.55934 -0.303938,0.55933 -0.475095,0.69441 -0.475094,0.69442 -0.761698,0.80155 -0.761698,0.80156 -0.755989,0.55492 -0.755989,0.55493 -0.859485,0.4456 -0.859484,0.4456 -0.883829,0.28341 -0.883829,0.28341 -0.747563,0.0906 -0.747564,0.0905 -0.466112,0.0362 -0.466112,0.0362 z m 2.993273,-2.06826 0.592399,-0.13376 0.619492,-0.24752 0.619493,-0.24753 0.548892,-0.30972 0.548891,-0.30971 0.57577,-0.45816 0.57577,-0.45815 0.676335,-0.71201 0.676335,-0.712 0.401124,-0.62216 0.401125,-0.62217 0.287121,-0.57115 0.287121,-0.57115 0.272444,-0.82719 0.272445,-0.82718 0.128208,-0.55934 0.128208,-0.55933 v -1.63139 -1.63139 l -0.126718,-0.55934 -0.126718,-0.55933 -0.183284,-0.60595 -0.183284,-0.60594 -0.409281,-0.86806 -0.409281,-0.86805 -0.432998,-0.61941 -0.432999,-0.61941 -0.47911,-0.55374 -0.479111,-0.55375 -0.769062,-0.62097 -0.769061,-0.62097 -0.722497,-0.38046 -0.722497,-0.38046 -0.559335,-0.18267 -0.559334,-0.18266 -0.444145,-0.1074 -0.444144,-0.1074 h -1.140671 -1.140672 l -0.605911,0.1311 -0.605911,0.13109 -0.372889,0.13666 -0.37289,0.13666 -0.466112,0.21578 -0.466112,0.21577 -0.699168,0.46199 -0.699168,0.46199 -0.845909,0.85657 -0.845909,0.85657 -0.518897,0.78483 -0.518897,0.78484 -0.280345,0.56107 -0.280345,0.56107 -0.247143,0.73622 -0.247142,0.73622 -0.142019,0.66038 -0.142018,0.66038 -0.05321,1.26894 -0.05321,1.26894 0.165457,0.92179 0.165458,0.92178 0.269452,0.81933 0.269453,0.81932 0.381316,0.71884 0.381317,0.71885 0.42602,0.60595 0.42602,0.60594 0.752054,0.75316 0.752054,0.75315 0.594868,0.4006 0.594868,0.4006 0.764311,0.35816 0.764311,0.35817 0.55188,0.1492 0.551881,0.14919 0.652557,0.0767 0.652557,0.0767 0.839001,-0.0469 0.839002,-0.0469 z m 41.078019,2.09458 -0.839002,-0.0814 -0.973847,-0.19038 -0.973847,-0.19038 -0.704156,-0.23241 -0.704156,-0.23241 -0.74578,-0.36557 -0.745779,-0.36557 -0.559334,-0.3662 -0.559335,-0.3662 -0.726729,-0.62018 -0.726729,-0.62018 0.0615,-0.20336 0.0615,-0.20336 0.292339,-0.55898 0.292339,-0.55898 0.155386,-0.029 0.155386,-0.029 0.620652,0.56246 0.620652,0.56246 0.599348,0.44885 0.599348,0.44884 0.675507,0.33479 0.675507,0.33479 0.559334,0.18682 0.559335,0.18682 0.419501,0.101 0.419501,0.10101 0.670413,0.096 0.670414,0.096 h 1.433275 1.433275 l 0.55315,-0.0951 0.55315,-0.0951 0.419501,-0.10037 0.419501,-0.10037 0.512723,-0.19738 0.512727,-0.19738 0.40564,-0.22635 0.40565,-0.22635 0.40379,-0.42139 0.40379,-0.42139 0.29243,-0.57614 0.29243,-0.57613 0.10323,-0.66693 0.10323,-0.66692 -0.10841,-0.58294 -0.10841,-0.58294 -0.28324,-0.57534 -0.28324,-0.57534 -0.50153,-0.45837 -0.50152,-0.45837 -0.743371,-0.38674 -0.743367,-0.38675 -1.246556,-0.4123 -1.246557,-0.41231 -1.16528,-0.28253 -1.16528,-0.28252 -0.652557,-0.15349 -0.652557,-0.1535 -1.113616,-0.37277 -1.113617,-0.37278 -0.657609,-0.33091 -0.657609,-0.33091 -0.517646,-0.35123 -0.517646,-0.35123 -0.5078,-0.55225 -0.507801,-0.55225 -0.269452,-0.54068 -0.269452,-0.54067 -0.126633,-0.664 -0.126634,-0.66401 0.0032,-0.55933 0.0032,-0.55933 0.125721,-0.51273 0.125721,-0.51272 0.140347,-0.39801 0.140347,-0.39801 0.313251,-0.52632 0.313251,-0.52632 0.652557,-0.6652 0.652557,-0.6652 0.593155,-0.40206 0.593155,-0.40206 0.578967,-0.26252 0.578967,-0.26251 0.579772,-0.19532 0.579772,-0.19531 0.7185,-0.13749 0.7185,-0.13748 1.380479,-2e-5 1.380479,-2e-5 0.670414,0.0995 0.670414,0.0995 0.792391,0.23409 0.79239,0.23408 0.839003,0.41287 0.839,0.41287 0.88562,0.63784 0.88561,0.63784 0.0277,0.18445 0.0277,0.18444 -0.43531,0.52876 -0.4353,0.52875 h -0.15217 -0.15218 l -0.67573,-0.50834 -0.67573,-0.50834 -0.61999,-0.34672 -0.619993,-0.34672 -0.798769,-0.27532 -0.79877,-0.27532 -0.934784,-0.12517 -0.934783,-0.12516 -0.669117,-0.003 -0.669117,-0.003 -0.72922,0.0947 -0.729219,0.0947 -0.559334,0.14509 -0.559335,0.14509 -0.695665,0.3429 -0.695666,0.3429 -0.523572,0.48468 -0.523573,0.48469 -0.251873,0.36345 -0.251872,0.36345 -0.194349,0.50359 -0.194349,0.50359 -0.009,0.97883 -0.009,0.97884 0.247686,0.47613 0.247685,0.47613 0.253581,0.30136 0.253581,0.30136 0.474788,0.35075 0.474787,0.35075 0.558604,0.29042 0.558603,0.29043 0.792391,0.28654 0.79239,0.28653 1.398336,0.35347 1.398336,0.35348 0.512724,0.11656 0.512723,0.11656 0.652557,0.18942 0.652557,0.18941 1.046259,0.39839 1.046262,0.3984 0.73768,0.43247 0.73769,0.43248 0.63336,0.57999 0.63336,0.57998 0.34802,0.53804 0.34801,0.53803 0.17119,0.53402 0.17118,0.53403 -0.009,1.30511 -0.009,1.30512 -0.25121,0.65255 -0.25121,0.65256 -0.32965,0.49844 -0.32966,0.49844 -0.58973,0.57362 -0.58973,0.57362 -0.51229,0.30846 -0.51228,0.30847 -0.73218,0.31891 -0.732185,0.31891 -0.839001,0.18046 -0.839002,0.18046 -1.029741,0.10108 -1.029742,0.10108 -0.321983,-0.0147 -0.321984,-0.0147 z M 21.34368,163.4402 21.197188,163.2937 V 151.14625 138.9988 l 0.121203,-0.10059 0.121202,-0.10059 7.747547,-0.006 7.747546,-0.006 0.148378,0.14837 0.148379,0.14838 v 0.59263 0.59263 l -0.146493,0.14649 -0.146492,0.14649 h -6.939273 -6.939273 l 0.02417,4.68443 0.02417,4.68443 6.15268,0.0234 6.152679,0.0234 0.110322,0.1491 0.110322,0.1491 -0.05226,0.66654 -0.05226,0.66653 -0.07158,0.0788 -0.07158,0.0788 -6.139158,0.0144 -6.139158,0.0144 -0.02415,4.88816 -0.02415,4.88815 0.117369,0.0763 0.117368,0.0763 7.121904,-0.007 7.121904,-0.007 0.0781,0.12318 0.0781,0.12318 0.0014,0.6692 0.0014,0.6692 -0.146493,0.1465 -0.146492,0.14649 H 29.44732 21.490122 Z m 60.990026,0.07 -0.157218,-0.0634 -0.448728,-0.62182 -0.448728,-0.62181 -2.247315,-2.96725 -2.247316,-2.96725 -1.019342,-1.27794 -1.019341,-1.27793 -0.334038,-0.56466 -0.334038,-0.56466 -0.166455,0.25781 -0.166454,0.25782 -1.215746,1.49156 -1.215746,1.49155 -1.086136,1.30512 -1.086135,1.30511 -1.677804,2.23734 -1.677804,2.23734 -0.188783,0.16709 -0.188783,0.1671 -0.779646,-0.0273 -0.779647,-0.0273 -0.02946,-0.15426 -0.02946,-0.15426 0.409034,-0.46055 0.409033,-0.46055 0.923083,-1.20303 0.923083,-1.20303 1.954061,-2.47039 1.95406,-2.4704 0.359622,-0.46611 0.359622,-0.46611 1.250399,-1.678 1.250399,-1.67801 1.534414,-2.06729 1.534414,-2.06729 0.862997,-1.10227 0.862997,-1.10227 2.136064,-2.6393 2.136064,-2.63929 0.23004,-0.0875 0.230041,-0.0875 h 0.541851 0.541851 l 0.116027,0.1398 0.116028,0.13981 -0.127919,0.17599 -0.127918,0.176 -0.279285,0.36006 -0.279285,0.36006 -0.657395,0.839 -0.657396,0.83901 -0.718566,1.00334 -0.718565,1.00335 -0.434715,0.62805 -0.434715,0.62804 -1.729054,2.33056 -1.729054,2.33056 -0.678966,0.85712 -0.678966,0.85711 v 0.10678 0.10678 l 0.173256,0.15477 0.173257,0.15478 1.395031,1.72461 1.395031,1.72462 1.446357,1.91106 1.446357,1.91106 1.099062,1.53817 1.099061,1.53817 0.314358,0.38857 0.314359,0.38858 v 0.14417 0.14417 l -0.180317,0.0965 -0.180316,0.0965 -0.588768,-0.007 -0.588769,-0.007 z m 62.278184,-1.3253 -0.61771,-0.0721 -0.71401,-0.19589 -0.71401,-0.19588 -0.76578,-0.38342 -0.76578,-0.38341 -0.46611,-0.33598 -0.46612,-0.33598 -0.54725,-0.51518 -0.54725,-0.51518 -0.39299,-0.51273 -0.39299,-0.51272 -0.34209,-0.61584 -0.34208,-0.61583 -0.27027,-0.7825 -0.27026,-0.7825 -0.11491,-0.91923 -0.11492,-0.91922 0.058,-0.68577 0.058,-0.68577 0.1478,-0.72557 0.1478,-0.72556 0.34772,-0.79334 0.34771,-0.79334 0.39104,-0.57583 0.39105,-0.57583 0.51919,-0.5608 0.5192,-0.56079 0.62328,-0.45909 0.62329,-0.45909 0.52283,-0.29254 0.52282,-0.29254 0.80982,-0.27374 0.80982,-0.27373 0.75784,-0.11081 0.75784,-0.11081 0.98586,0.0556 0.98585,0.0556 0.79239,0.22666 0.79239,0.22667 0.53975,0.24399 0.53974,0.244 0.62554,0.41219 0.62553,0.4122 0.57344,0.51906 0.57345,0.51906 0.46054,0.62975 0.46054,0.62975 0.29172,0.51934 0.29173,0.51934 0.27841,0.85195 0.2784,0.85194 0.10847,0.81512 0.10847,0.81512 -0.063,0.79671 -0.063,0.79671 -0.13621,0.60595 -0.13622,0.60594 -0.2005,0.51273 -0.2005,0.51272 -0.26068,0.52653 -0.26067,0.52653 -0.47118,0.6225 -0.47117,0.62251 0.17387,0.15608 0.17387,0.15608 0.43368,0.52277 0.43369,0.52277 v 0.14171 0.1417 l -0.59697,0.52411 -0.59697,0.52411 h -0.13739 -0.1374 l -0.12171,-0.14665 -0.1217,-0.14665 -0.34892,-0.178 -0.34893,-0.17801 -0.49631,-0.0568 -0.49632,-0.0568 -1.25891,0.42445 -1.25892,0.42445 -0.83859,0.0961 -0.83859,0.0961 -0.27967,-0.0115 -0.27966,-0.0115 z m 2.90167,-1.6212 0.51272,-0.13996 0.839,-0.41828 0.839,-0.41828 0.49053,-0.40638 0.49053,-0.40637 0.51112,-0.6003 0.51112,-0.60031 0.36872,-0.70444 0.36872,-0.70444 0.21,-0.74051 0.20999,-0.7405 2.7e-4,-1.30512 2.7e-4,-1.30511 -0.29662,-0.88837 -0.29662,-0.88838 -0.35179,-0.5807 -0.35179,-0.58071 -0.5404,-0.60353 -0.54041,-0.60353 -0.59259,-0.42286 -0.59259,-0.42287 -0.61133,-0.27719 -0.61134,-0.27719 -0.70829,-0.19432 -0.70828,-0.19431 -1.04322,0.002 -1.04323,0.002 -0.74578,0.1899 -0.74578,0.1899 -0.74915,0.37581 -0.74914,0.3758 -0.58361,0.47222 -0.5836,0.47222 -0.49912,0.6051 -0.49912,0.60511 -0.33735,0.66896 -0.33736,0.66897 -0.19051,0.65255 -0.19051,0.65256 -0.0522,0.93222 -0.0522,0.93223 0.10692,0.68456 0.10692,0.68456 0.28046,0.72724 0.28045,0.72724 0.37488,0.58001 0.37488,0.58001 0.48444,0.51451 0.48445,0.5145 0.46611,0.34159 0.46612,0.34159 0.43043,0.24842 0.43044,0.24842 0.53575,0.20045 0.53574,0.20045 0.66521,0.12716 0.66521,0.12716 1.02545,-0.0412 1.02544,-0.0412 z m -3.51579,-0.27799 -0.85894,-0.22855 -0.72584,-0.37814 -0.72583,-0.37814 -0.49134,-0.40372 -0.49134,-0.40372 -0.44089,-0.52235 -0.44088,-0.52235 -0.30957,-0.51221 -0.30958,-0.51221 -0.2211,-0.63714 -0.2211,-0.63714 -0.0979,-0.60595 -0.0979,-0.60594 -6.9e-4,-0.55934 -6.8e-4,-0.55933 0.13991,-0.73117 0.13991,-0.73116 0.26351,-0.62717 0.26351,-0.62717 0.34927,-0.5262 0.34927,-0.52621 0.50142,-0.50949 0.50142,-0.5095 0.57071,-0.38755 0.5707,-0.38756 0.52903,-0.2343 0.52904,-0.23431 0.69077,-0.17697 0.69078,-0.17698 h 0.82802 0.82802 l 0.71854,0.14467 0.71854,0.14468 0.84261,0.41369 0.84262,0.4137 0.53669,0.47834 0.53669,0.47835 -0.0412,0.0412 -0.0412,0.0412 -0.49908,-0.38215 -0.49907,-0.38214 -0.65818,-0.31577 -0.65817,-0.31576 -0.60033,-0.16776 -0.60033,-0.16777 -1.21189,0.002 -1.21189,0.002 -0.60595,0.21207 -0.60594,0.21208 -0.57614,0.28193 -0.57613,0.28194 -0.61679,0.50875 -0.61678,0.50876 -0.42523,0.57701 -0.42522,0.57702 -0.27596,0.54595 -0.27597,0.54596 -0.18009,0.70415 -0.18009,0.70416 v 0.86611 0.86611 l 0.10452,0.49401 0.10452,0.494 0.23775,0.60595 0.23775,0.60594 0.32225,0.51273 0.32224,0.51272 0.38204,0.4195 0.38204,0.4195 0.4217,0.35552 0.4217,0.35552 0.839,0.4093 0.839,0.4093 0.88538,0.16017 0.88538,0.16016 0.88585,-0.10029 0.88584,-0.1003 0.46611,-0.15715 0.46611,-0.15716 0.65256,-0.31306 0.65256,-0.31307 0.59242,-0.48314 0.59242,-0.48315 -0.0981,0.18333 -0.0981,0.18333 -0.38309,0.34609 -0.38309,0.3461 -0.4841,0.30826 -0.48411,0.30826 -0.45569,0.20037 -0.4557,0.20037 -0.52314,0.14201 -0.52314,0.14201 -0.97884,0.0459 -0.97883,0.0459 z m -4.02363,-5.15898 -0.10425,-0.25636 -0.0935,-0.50214 -0.0935,-0.50214 0.001,-0.56992 0.001,-0.56991 0.14232,-0.60595 0.14232,-0.60594 0.3771,-0.78027 0.37711,-0.78027 0.71439,-0.7122 0.7144,-0.7122 0.58985,-0.34041 0.58985,-0.3404 0.7612,-0.2054 0.76121,-0.20539 1.07272,0.0472 1.07273,0.0472 0.50105,0.2006 0.50106,0.20059 0.33795,0.17249 0.33795,0.17248 0.1781,0.19694 0.17811,0.19694 -0.0459,0.0459 -0.0459,0.0459 -0.67697,-0.23652 -0.67697,-0.23652 -0.66326,-0.0833 -0.66325,-0.0833 -0.70778,0.0807 -0.70778,0.0807 -0.63569,0.23928 -0.63569,0.23927 -0.53534,0.3252 -0.53534,0.32521 -0.64218,0.67692 -0.64219,0.67693 -0.3479,0.66311 -0.3479,0.66312 -0.15148,0.642 -0.15149,0.64199 2.4e-4,1.00215 2.5e-4,1.00214 h -0.0721 -0.0721 z m 33.47195,6.90967 -0.58925,-0.12784 -0.6892,-0.28691 -0.68919,-0.28691 -0.77245,-0.51319 -0.77245,-0.51318 -0.58937,-0.57488 -0.58936,-0.57489 -0.49304,-0.74578 -0.49305,-0.74577 -0.3286,-0.83901 -0.3286,-0.839 -0.11568,-0.50196 -0.11569,-0.50196 -0.004,-1.31588 -0.004,-1.31587 0.12075,-0.51273 0.12074,-0.51272 0.0919,-0.27967 0.0919,-0.27966 0.24402,-0.60595 0.24402,-0.60594 0.3706,-0.65256 0.3706,-0.65256 0.99022,-0.97883 0.99021,-0.97884 0.7388,-0.38962 0.7388,-0.38962 0.69917,-0.22485 0.69917,-0.22485 0.56494,-0.108 0.56495,-0.10801 h 1.00902 1.00902 l 0.3837,0.10061 0.38371,0.1006 0.37289,0.0955 0.37289,0.0955 0.58782,0.23607 0.58783,0.23606 0.57745,0.36866 0.57746,0.36865 0.73039,0.71402 0.73039,0.71401 0.39439,0.60595 0.39438,0.60594 0.15101,0.32768 0.15101,0.32768 0.1032,0.27143 0.1032,0.27143 0.18249,0.68099 0.18249,0.68098 v 0.9153 0.91529 l -0.11187,0.11187 -0.11187,0.11186 h -7.11579 -7.1158 l -0.06,0.15631 -0.06,0.1563 0.11336,0.78398 0.11335,0.78399 0.22923,0.60901 0.22923,0.60901 0.33279,0.54783 0.33278,0.54782 0.45447,0.49726 0.45447,0.49726 0.66001,0.44283 0.66002,0.44282 0.53369,0.21518 0.5337,0.21519 0.52314,0.11556 0.52314,0.11557 1.10825,-0.0437 1.10825,-0.0437 0.75925,-0.29755 0.75924,-0.29755 0.5848,-0.37798 0.5848,-0.37797 0.80319,-0.80763 0.80318,-0.80763 0.27656,-0.44264 0.27655,-0.44264 0.16455,-1.7e-4 0.16455,-1.6e-4 0.51131,0.28856 0.51132,0.28857 v 0.1895 0.18951 l -0.29705,0.52407 -0.29704,0.52407 -0.38509,0.47705 -0.3851,0.47706 -0.50239,0.44619 -0.5024,0.4462 -0.61,0.3941 -0.61,0.3941 -0.64149,0.29044 -0.64148,0.29043 -0.38396,0.10501 -0.38396,0.10501 -0.60591,0.12835 -0.60591,0.12834 -1.07209,-0.012 -1.0721,-0.012 z m 8.13367,-9.99865 0.051,-0.0826 -0.18274,-0.71454 -0.18275,-0.71453 -0.34691,-0.67116 -0.34691,-0.67115 -0.75106,-0.74716 -0.75107,-0.74715 -0.65255,-0.33278 -0.65256,-0.33278 -0.4195,-0.11836 -0.4195,-0.11836 -0.21414,-0.0835 -0.21414,-0.0835 h -1.23194 -1.23194 l -0.73205,0.23234 -0.73205,0.23234 -0.50194,0.28718 -0.50195,0.28719 -0.5104,0.46647 -0.51039,0.46648 -0.40659,0.62209 -0.40658,0.62208 -0.18685,0.4195 -0.18685,0.4195 -0.16174,0.5904 -0.16174,0.59039 0.0507,0.13208 0.0507,0.13208 h 6.19672 6.19671 z m -52.36887,9.71554 -0.0622,-0.0621 v -11.33896 -11.33895 l 0.11187,-0.11187 0.11186,-0.11186 h 0.75511 0.7551 l 0.11186,0.11186 0.11187,0.11187 v 11.28923 11.28924 l -0.11187,0.11187 -0.11186,0.11186 h -0.80482 -0.80482 z m 28.88103,-0.051 -0.0457,-0.11992 0.0241,-8.06374 0.0241,-8.06374 h 0.93222 0.93223 l 0.0466,1.07206 0.0466,1.07206 0.0743,-0.02 0.0744,-0.02 0.42934,-0.57115 0.42935,-0.57116 0.54654,-0.45484 0.54655,-0.45484 0.68415,-0.32906 0.68415,-0.32907 0.64278,10e-4 0.64277,0.001 0.411,0.14311 0.41099,0.14312 0.17165,0.0919 0.17164,0.0919 0.001,0.11324 0.001,0.11325 -0.34401,0.67216 -0.344,0.67215 -0.12432,0.0477 -0.12432,0.0477 -0.23831,-0.0906 -0.23832,-0.0906 h -0.60192 -0.60193 l -0.58059,0.26511 -0.58059,0.2651 -0.43839,0.47196 -0.43839,0.47196 -0.31414,0.49813 -0.31414,0.49814 -0.21156,0.53043 -0.21155,0.53043 -0.10217,0.35518 -0.10217,0.35518 -0.0524,5.36029 -0.0524,5.36029 -0.91054,0.0267 -0.91054,0.0267 z m -86.142594,-11.79239 -0.646557,-0.72611 -0.423858,-0.51273 -0.423857,-0.51272 -0.739236,-0.97884 -0.739235,-0.97883 -1.077061,-1.35173 -1.07706,-1.35172 -1.198303,-1.58478 -1.198303,-1.58478 -0.435599,-0.51273 -0.4356,-0.51272 -0.06416,-0.10812 -0.06416,-0.10811 0.05689,-0.14825 0.05689,-0.14824 0.805723,0.001 0.805722,0.001 0.230748,0.11675 0.230748,0.11676 0.542732,0.69756 0.542732,0.69757 1.512962,2.05154 1.512962,2.05154 1.768733,2.26603 1.768733,2.26602 0.124422,0.17518 0.124422,0.17518 -0.310867,0.58752 -0.310867,0.58752 -0.146566,0.0273 -0.146566,0.0273 z"
         id="path41" /><path
         style="fill:#4bc040"
         d="m 157.9556,169.43113 -0.32514,-0.11126 -0.0284,-0.14806 -0.0284,-0.14805 1.09903,-0.94731 1.09903,-0.94731 h 0.1132 0.11319 l 0.0949,0.35252 0.0949,0.35253 -0.09,0.32592 -0.09,0.32592 -0.39753,0.3892 -0.39754,0.3892 -0.34659,0.14425 -0.34659,0.14424 -0.11952,-0.005 -0.11953,-0.005 z m -2.24905,-2.23207 -1.33327,-1.51487 -1.19252,-1.32187 -1.19253,-1.32187 v -0.1829 -0.18291 l 0.8157,-0.73729 0.81569,-0.73729 0.26232,-0.19981 0.26231,-0.19982 0.12382,0.0475 0.12383,0.0475 1.47831,1.63811 1.47831,1.63812 1.08746,1.22145 1.08746,1.22145 -0.062,0.105 -0.062,0.105 -1.08792,0.94466 -1.08793,0.94466 h -0.0919 -0.0919 z m 3.22675,-0.50734 v -0.20437 l -2.21047,-2.4581 -2.21046,-2.4581 -0.1933,-0.17494 -0.1933,-0.17493 -0.19084,0.19084 -0.19084,0.19084 0.81589,0.92195 0.81588,0.92195 0.75519,0.839 0.75518,0.839 0.82719,0.91364 0.82719,0.91365 0.19634,-0.028 0.19635,-0.028 z m -50.67555,0.99102 -0.0848,-0.0523 0.0237,-11.04112 0.0237,-11.04112 h 0.74578 0.74578 l 0.0658,1.25104 0.0658,1.25104 0.13793,0.13794 0.13794,0.13793 0.86834,-0.83508 0.86833,-0.83509 0.44996,-0.30692 0.44996,-0.30693 0.76193,-0.35271 0.76194,-0.3527 0.46611,-0.10135 0.46611,-0.10135 0.43748,-0.0959 0.43747,-0.0959 0.58797,0.002 0.58797,0.002 0.74578,0.13382 0.74578,0.13382 0.27967,0.0614 0.27967,0.0614 0.85109,0.39763 0.85109,0.39764 0.54725,0.40005 0.54724,0.40005 0.65256,0.66128 0.65255,0.66128 0.4471,0.67209 0.44709,0.67208 0.25844,0.63168 0.25844,0.63167 0.17889,0.60595 0.17889,0.60594 -0.004,1.49156 -0.004,1.49156 -0.24958,0.71164 -0.24958,0.71164 -0.19403,0.45265 -0.19403,0.45265 -0.50013,0.75165 -0.50012,0.75164 -0.72925,0.69671 -0.72924,0.69672 -0.7191,0.44819 -0.7191,0.4482 -0.66228,0.27826 -0.66229,0.27826 -0.92875,0.18004 -0.92875,0.18004 -0.67256,-10e-4 -0.67255,-0.001 -0.88562,-0.2205 -0.88561,-0.22049 -0.46611,-0.21419 -0.46611,-0.2142 -0.63316,-0.40386 -0.63316,-0.40386 -0.8385,-0.80831 -0.8385,-0.80832 -0.15747,0.15747 -0.15747,0.15747 -0.0365,4.28717 -0.0365,4.28716 -0.10555,0.01 -0.10555,0.01 -0.63804,0.0136 -0.63805,0.0136 z m 10.2952,-7.40333 0.6269,-0.22739 0.54347,-0.28966 0.54347,-0.28967 0.59555,-0.49438 0.59555,-0.49438 0.42762,-0.54827 0.42761,-0.54826 0.27581,-0.51272 0.27581,-0.51273 0.15701,-0.49431 0.157,-0.49432 0.10795,-0.61988 0.10795,-0.61988 -0.0581,-1.07653 -0.0581,-1.07653 -0.13801,-0.4973 -0.13801,-0.4973 -0.23654,-0.51667 -0.23654,-0.51667 -0.41359,-0.5796 -0.41359,-0.5796 -0.54168,-0.49511 -0.54168,-0.49512 -0.46611,-0.30582 -0.46611,-0.30583 -0.60595,-0.22556 -0.60595,-0.22556 -0.33289,-0.10669 -0.3329,-0.10668 h -1.2064 -1.2064 l -0.74465,0.23631 -0.74465,0.23631 -0.61318,0.36425 -0.61318,0.36425 -0.48608,0.43702 -0.48607,0.43702 -0.41883,0.5443 -0.41883,0.5443 -0.32221,0.67876 -0.3222,0.67876 -0.12958,0.51273 -0.12957,0.51272 -0.0537,1.02545 -0.0537,1.02544 0.0803,0.65256 0.0803,0.65256 0.096,0.36581 0.096,0.36581 0.34616,0.70042 0.34617,0.70042 0.78958,0.81907 0.78958,0.81906 0.71156,0.41495 0.71155,0.41494 0.60594,0.20449 0.60595,0.20448 0.46611,0.0767 0.46611,0.0767 0.93753,-0.0429 0.93753,-0.0429 z m -68.316981,3.21386 -0.372889,-0.0734 -0.64743,-0.10868 -0.64743,-0.10868 -0.823346,-0.31797 -0.823346,-0.31798 -0.67334,-0.39165 -0.673339,-0.39165 -0.512724,-0.37176 -0.512723,-0.37177 -0.795732,-0.8007 -0.795732,-0.8007 -0.432636,-0.60821 -0.432636,-0.60822 -0.3148,-0.55706 -0.3148,-0.55707 -0.338358,-0.79239 -0.338358,-0.79239 -0.248495,-0.88561 -0.248495,-0.88562 -0.12895,-0.839 -0.128951,-0.839 -0.0017,-1.0108 -0.0017,-1.0108 0.19172,-0.94687 0.191719,-0.94687 0.324353,-0.97327 0.324353,-0.97327 0.512839,-0.9844 0.512839,-0.9844 0.623723,-0.839 0.623723,-0.83901 0.561398,-0.54246 0.561398,-0.54246 0.736273,-0.55898 0.736273,-0.55897 0.906779,-0.45504 0.906778,-0.45505 0.594286,-0.18757 0.594286,-0.18757 0.779383,-0.1437 0.779383,-0.1437 h 0.958276 0.958275 l 0.872569,0.18142 0.87257,0.18143 0.532053,0.18507 0.532053,0.18508 0.77306,0.38844 0.773061,0.38845 0.734558,0.52686 0.734557,0.52686 0.730003,0.72476 0.730002,0.72475 0.406181,0.53375 0.406181,0.53375 0.346967,0.57758 0.346968,0.57758 0.358665,0.77414 0.358664,0.77415 0.186394,0.55933 0.186394,0.55934 0.100116,0.4195 0.100116,0.4195 0.10492,0.51272 0.10492,0.51273 0.05141,1.17363 0.05141,1.17364 -0.1611,0.97048 -0.1611,0.97048 -0.121764,0.46611 -0.121764,0.46611 -0.205071,0.60595 -0.20507,0.60594 -0.404188,0.839 -0.404188,0.83901 -0.4896,0.74577 -0.489601,0.74578 -1.031544,1.03581 -1.031544,1.03581 -0.745779,0.48704 -0.745779,0.48703 -0.745779,0.35513 -0.74578,0.35513 -0.647785,0.19892 -0.647785,0.19891 -0.913077,0.13715 -0.913076,0.13714 -0.629865,-0.01 -0.629865,-0.01 z m 3.309396,-1.86188 0.699168,-0.20206 0.756857,-0.35449 0.756857,-0.35449 0.594868,-0.40213 0.594868,-0.40212 0.845268,-0.84485 0.845268,-0.84485 0.470147,-0.69917 0.470147,-0.69917 0.291975,-0.5786 0.291974,-0.5786 0.244414,-0.72651 0.244415,-0.72651 0.131043,-0.50115 0.131043,-0.50115 0.09358,-1.13024 0.09358,-1.13025 -0.102061,-0.88561 -0.102062,-0.88561 -0.191582,-0.79239 -0.191583,-0.79239 -0.350864,-0.81628 -0.350864,-0.81628 -0.387669,-0.65254 -0.387669,-0.65255 -0.480881,-0.58207 -0.480882,-0.58207 -0.56337,-0.54402 -0.563369,-0.54402 -0.756113,-0.5047 -0.756113,-0.50469 -0.642188,-0.29119 -0.642188,-0.29118 -0.885648,-0.22047 -0.885648,-0.22048 -0.902824,-0.001 -0.902824,-0.001 -0.681957,0.14055 -0.681957,0.14055 -0.74578,0.29333 -0.745779,0.29333 -0.605946,0.36608 -0.605945,0.36608 -0.491009,0.37789 -0.491008,0.37788 -0.52834,0.57007 -0.528341,0.57008 -0.521383,0.70257 -0.521383,0.70257 -0.383402,0.74238 -0.383401,0.74237 -0.235608,0.66013 -0.235608,0.66013 -0.203318,0.94962 -0.203318,0.94962 0.04108,1.60642 0.04108,1.60643 0.239674,0.89813 0.239674,0.89813 0.298527,0.68665 0.298527,0.68665 0.421675,0.71432 0.421675,0.71432 0.644096,0.75636 0.644097,0.75636 0.699128,0.55557 0.699128,0.55558 0.425862,0.24957 0.425862,0.24957 0.804908,0.3433 0.804908,0.3433 0.559335,0.10583 0.559334,0.10583 0.186445,0.0434 0.186445,0.0434 1.211891,-0.0326 1.211892,-0.0326 z m 40.163985,1.81086 -1.086932,-0.1184 -0.748409,-0.19399 -0.74841,-0.194 -0.448607,-0.14836 -0.448608,-0.14836 -0.745779,-0.35909 -0.74578,-0.35909 -0.686236,-0.46064 -0.686236,-0.46065 -0.548961,-0.48321 -0.54896,-0.48322 v -0.13699 -0.137 l 0.277581,-0.54988 0.277581,-0.54989 0.09417,-0.0582 0.09417,-0.0582 0.443943,0.41279 0.443944,0.41278 0.647387,0.51698 0.647387,0.51697 0.588121,0.32689 0.58812,0.32688 0.722163,0.27549 0.722163,0.27548 0.605946,0.146 0.605945,0.146 1.165281,0.10953 1.16528,0.10953 1.025446,-0.0645 1.025447,-0.0645 0.652557,-0.12566 0.652557,-0.12565 0.466112,-0.15791 0.466112,-0.15791 0.507025,-0.2462 0.50702,-0.24621 0.492,-0.44931 0.49199,-0.4493 0.27408,-0.48292 0.27408,-0.48292 0.14855,-0.50634 0.14854,-0.50633 -10e-4,-0.65895 -0.001,-0.65894 -0.13604,-0.44839 -0.13605,-0.44839 -0.25518,-0.46886 -0.25519,-0.46886 -0.49728,-0.45449 -0.49729,-0.45449 -0.817303,-0.40914 -0.817297,-0.40914 -1.159765,-0.3752 -1.159765,-0.3752 -0.37289,-0.0969 -0.372889,-0.0969 -0.37289,-0.0971 -0.37289,-0.0971 -1.211891,-0.29599 -1.211891,-0.29599 -1.025447,-0.34673 -1.025446,-0.34673 -0.693352,-0.34993 -0.693352,-0.34992 -0.47471,-0.35069 -0.474711,-0.35069 -0.484173,-0.52976 -0.484173,-0.52976 -0.304116,-0.62444 -0.304116,-0.62443 0.005,-1.44495 0.005,-1.44494 0.200516,-0.50331 0.200517,-0.50331 0.305933,-0.51358 0.305933,-0.51357 0.498382,-0.54343 0.498382,-0.54343 0.566356,-0.42574 0.566356,-0.42573 0.753099,-0.36164 0.753099,-0.36164 0.605946,-0.19054 0.605945,-0.19054 0.827908,-0.14192 0.827907,-0.14191 1.083152,3.7e-4 1.083152,3.8e-4 0.885613,0.14201 0.885613,0.14201 0.652557,0.19616 0.652557,0.19616 0.932224,0.45228 0.93223,0.45229 0.73898,0.55538 0.73899,0.55538 0.0766,0.13691 0.0766,0.13691 -0.42453,0.52116 -0.42454,0.52116 h -0.071 -0.071 l -0.73955,-0.56037 -0.73955,-0.56037 -0.838999,-0.41491 -0.839002,-0.4149 -0.839002,-0.25206 -0.839002,-0.25206 -1.911059,-0.008 -1.91106,-0.008 -0.745779,0.214 -0.745779,0.214 -0.692269,0.34533 -0.692269,0.34534 -0.534861,0.49199 -0.53486,0.49199 -0.281621,0.44023 -0.281621,0.44023 -0.168449,0.46612 -0.16845,0.46611 -8.03e-4,1.02544 -8.04e-4,1.02545 0.222156,0.4195 0.222156,0.4195 0.276697,0.35161 0.276698,0.35161 0.573204,0.40648 0.573205,0.40649 0.570973,0.28611 0.570973,0.28611 0.967196,0.3211 0.967197,0.3211 0.396195,0.10295 0.396196,0.10295 0.349584,0.0888 0.349584,0.0888 0.839001,0.1953 0.839002,0.1953 0.37289,0.10071 0.372889,0.1007 0.978836,0.32485 0.978835,0.32485 0.657842,0.3014 0.65785,0.30141 0.55405,0.35442 0.55404,0.35442 0.63842,0.6155 0.63842,0.6155 0.22345,0.38034 0.22346,0.38034 0.17555,0.51026 0.17556,0.51026 0.0608,0.74079 0.0608,0.7408 -0.0834,0.69916 -0.0834,0.69917 -0.29465,0.70715 -0.29466,0.70714 -0.5166,0.6263 -0.5166,0.6263 -0.61139,0.44895 -0.61139,0.44895 -0.571,0.28207 -0.571,0.28208 -0.466112,0.16063 -0.466112,0.16062 -0.326278,0.0827 -0.326279,0.0827 -1.118669,0.13746 -1.118669,0.13746 -0.79239,-0.0112 -0.792391,-0.0112 z m -72.372799,-0.25176 -0.05063,-0.20975 0.02555,-11.97908 0.02555,-11.97908 7.843812,-0.0238 7.843812,-0.0238 0.03764,0.11705 0.03764,0.11706 -0.03574,0.58264 -0.03574,0.58264 -6.913484,0.001 -6.913484,0.001 -0.117392,0.0745 -0.117392,0.0745 0.02417,4.74831 0.02417,4.74831 6.19929,0.0466 6.199291,0.0466 v 0.74578 0.74578 l -6.199291,0.0466 -6.19929,0.0466 v 5.03401 5.03401 l 7.224737,0.0466 7.224737,0.0466 0.02708,0.76909 0.02708,0.76908 h -8.065732 -8.065733 z m 42.649724,0.0378 v -0.172 l 0.196534,-0.17759 0.196534,-0.17758 1.222223,-1.58479 1.222223,-1.58478 1.777021,-2.23733 1.777021,-2.23734 0.396318,-0.51273 0.396318,-0.51272 1.278775,-1.71131 1.278775,-1.71131 1.855785,-2.4837 1.855784,-2.4837 0.892527,-1.11866 0.892527,-1.11867 1.753965,-2.16458 1.753965,-2.16457 0.06878,-0.0425 0.06878,-0.0425 0.620702,-0.0279 0.620701,-0.0279 0.07201,0.072 0.07201,0.072 -0.08993,0.12597 -0.08992,0.12597 -0.932224,1.19759 -0.932224,1.19759 -0.643062,0.886 -0.643062,0.886 -0.749764,1.07206 -0.749764,1.07205 -1.674419,2.23734 -1.674419,2.23734 -0.549848,0.68077 -0.549848,0.68077 0.05762,0.18154 0.05762,0.18153 h 0.07843 0.07843 l 0.462821,0.58264 0.462822,0.58264 0.996823,1.2119 0.996823,1.21189 1.508677,2.00069 1.508676,2.0007 1.370464,1.90763 1.370464,1.90763 -0.04755,0.0769 -0.04755,0.0769 -0.763583,-0.002 -0.763583,-0.002 -0.608708,-0.81392 -0.608708,-0.81393 -2.144938,-2.84328 -2.144938,-2.84329 -0.794777,-0.97883 -0.794777,-0.97884 -0.386104,-0.54545 -0.386104,-0.54545 -0.104572,-0.31685 -0.104572,-0.31686 -0.109298,7.2e-4 -0.109299,7.2e-4 -0.201422,0.34886 -0.201423,0.34887 -0.958567,1.16528 -0.958567,1.16528 -1.274309,1.53817 -1.274309,1.53817 -1.791633,2.37717 -1.791634,2.37717 -0.155521,0.0634 -0.155521,0.0634 -0.629252,0.007 -0.629251,0.007 z m 79.820125,-1.27983 -0.5842,-0.12798 -0.72091,-0.28787 -0.72091,-0.28788 -0.4195,-0.24338 -0.4195,-0.24339 -0.48556,-0.35693 -0.48556,-0.35693 -0.52622,-0.53594 -0.52621,-0.53594 -0.40105,-0.55934 -0.40105,-0.55933 -0.32557,-0.65256 -0.32557,-0.65255 -0.19363,-0.63148 -0.19362,-0.63148 -0.10288,-0.81347 -0.10288,-0.81347 0.0636,-0.79239 0.0636,-0.79239 0.21363,-0.84493 0.21363,-0.84493 0.37461,-0.73985 0.37462,-0.73985 0.33092,-0.46101 0.33091,-0.46102 0.58606,-0.59854 0.58605,-0.59854 0.56601,-0.40502 0.56601,-0.40501 0.78572,-0.37563 0.78571,-0.37562 0.74578,-0.20258 0.74578,-0.20257 h 1.39834 1.39833 l 0.71767,0.19658 0.71767,0.19659 0.70937,0.32774 0.70936,0.32775 0.62386,0.41532 0.62386,0.41532 0.55076,0.54379 0.55075,0.54378 0.41491,0.55933 0.41491,0.55934 0.30512,0.60594 0.30513,0.60595 0.24427,0.77452 0.24427,0.77452 0.0951,0.85687 0.0951,0.85687 -0.0884,0.83901 -0.0884,0.839 -0.10353,0.45639 -0.10353,0.45639 -0.32681,0.7895 -0.32681,0.78949 -0.30996,0.47873 -0.30995,0.47873 -0.32358,0.40348 -0.32357,0.40348 0.50962,0.52874 0.50961,0.52875 0.14815,0.2243 0.14814,0.2243 -0.59232,0.54478 -0.59232,0.54479 h -0.086 -0.086 l -0.34412,-0.27406 -0.34412,-0.27406 -0.44798,-0.11121 -0.44799,-0.1112 -0.43763,0.0548 -0.43762,0.0548 -0.71415,0.27836 -0.71416,0.27836 -0.70356,0.14533 -0.70356,0.14532 -1.1459,-0.009 -1.1459,-0.009 z m 4.10142,-1.41187 0.81377,-0.28233 0.64603,-0.3838 0.64604,-0.3838 0.52707,-0.48171 0.52707,-0.48172 0.42946,-0.55812 0.42946,-0.55812 0.34866,-0.71132 0.34867,-0.71132 0.15246,-0.55696 0.15247,-0.55696 0.0517,-1.11867 0.0517,-1.11866 -0.14198,-0.66515 -0.14198,-0.66515 -0.25437,-0.63997 -0.25436,-0.63996 -0.32486,-0.511 -0.32487,-0.51099 -0.38355,-0.45498 -0.38355,-0.45498 -0.56626,-0.45067 -0.56627,-0.45066 -0.75265,-0.37557 -0.75264,-0.37557 -0.73198,-0.20138 -0.73198,-0.20138 -1.02545,-0.006 -1.02545,-0.006 -0.55933,0.12305 -0.55934,0.12305 -0.69901,0.27704 -0.69902,0.27703 -0.6061,0.40924 -0.60609,0.40924 -0.45026,0.43369 -0.45025,0.43369 -0.37383,0.47293 -0.37383,0.47293 -0.30712,0.61027 -0.30713,0.61027 -0.20667,0.65256 -0.20667,0.65256 -0.0492,1.07751 -0.0492,1.0775 0.15649,0.78694 0.15648,0.78694 0.45412,0.93223 0.45411,0.93222 0.51344,0.61866 0.51344,0.61865 0.55913,0.43024 0.55912,0.43024 0.68276,0.36738 0.68277,0.36739 0.69916,0.18655 0.69917,0.18655 0.23306,0.045 0.23306,0.045 1.16528,-0.0253 1.16528,-0.0253 z m -2.95788,-0.18601 -0.27967,-0.0386 -0.74578,-0.18002 -0.74578,-0.18003 -0.66896,-0.33596 -0.66897,-0.33597 -0.61354,-0.50607 -0.61354,-0.50608 -0.42752,-0.5334 -0.42753,-0.53341 -0.36175,-0.74578 -0.36176,-0.74578 -0.14336,-0.55933 -0.14336,-0.55933 -0.0576,-0.74738 -0.0576,-0.74738 0.11629,-0.69757 0.1163,-0.69757 0.25423,-0.69917 0.25422,-0.69917 0.35455,-0.55933 0.35455,-0.55933 0.7145,-0.69917 0.7145,-0.69917 0.83316,-0.43542 0.83315,-0.43542 0.55934,-0.14251 0.55933,-0.1425 0.95553,-0.0647 0.95553,-0.0647 v 0.093 0.093 l -0.90892,0.0507 -0.90891,0.0507 -0.68704,0.24074 -0.68704,0.24074 -0.57147,0.32152 -0.57146,0.32152 -0.4755,0.40273 -0.4755,0.40272 -0.45633,0.57901 -0.45633,0.57901 -0.2547,0.49305 -0.25471,0.49305 -0.2118,0.60595 -0.2118,0.60594 0.002,1.39834 0.003,1.39833 0.25524,0.69608 0.25524,0.69607 0.36612,0.61628 0.36612,0.61627 0.42962,0.47784 0.42962,0.47784 0.57791,0.43727 0.5779,0.43728 0.65523,0.3134 0.65524,0.3134 0.64988,0.13766 0.64988,0.13766 0.54153,0.002 0.54153,0.002 -0.0576,0.0932 -0.0576,0.0932 -0.34408,-0.014 -0.34408,-0.014 z m -5.01441,-5.74433 -0.0664,-0.17096 -0.0582,-0.62576 -0.0582,-0.62576 0.11461,-0.67949 0.11461,-0.6795 0.2331,-0.57365 0.2331,-0.57366 0.33478,-0.50437 0.33479,-0.50438 0.49164,-0.48001 0.49165,-0.48002 0.58541,-0.34804 0.5854,-0.34805 0.65255,-0.20676 0.65256,-0.20675 h 1.11867 1.11867 l 0.69917,0.2601 0.69916,0.2601 0.17964,0.13513 0.17964,0.13513 -0.0438,0.0438 -0.0438,0.0438 -0.60195,-0.19407 -0.60194,-0.19408 -1.02545,-0.003 -1.02544,-0.003 -0.71471,0.23515 -0.7147,0.23514 -0.59041,0.33199 -0.59041,0.33199 -0.53493,0.47925 -0.53493,0.47924 -0.46461,0.70773 -0.46462,0.70772 -0.19788,0.59465 -0.19789,0.59465 -0.11131,0.9984 -0.11132,0.99841 z m 34.00991,7.38519 -0.556,-0.081 -0.46945,-0.15324 -0.46944,-0.15324 -0.57212,-0.25651 -0.57213,-0.2565 -0.59315,-0.40079 -0.59316,-0.40078 -0.59462,-0.56536 -0.59462,-0.56536 -0.34222,-0.46611 -0.34223,-0.46611 -0.25636,-0.44399 -0.25637,-0.44399 -0.22441,-0.59621 -0.22442,-0.59622 -0.14385,-0.62028 -0.14385,-0.62028 v -1.24693 -1.24693 l 0.14669,-0.63252 0.14669,-0.63252 0.28815,-0.7483 0.28815,-0.74829 0.23105,-0.4195 0.23104,-0.4195 0.179,-0.25571 0.17899,-0.2557 0.43693,-0.50731 0.43693,-0.50732 0.64592,-0.52613 0.64592,-0.52613 0.7058,-0.34807 0.70581,-0.34806 0.65255,-0.19775 0.65256,-0.19775 0.65256,-0.10957 0.65255,-0.10957 0.88562,0.0491 0.88561,0.0491 0.4195,0.0959 0.4195,0.0959 0.27967,0.0629 0.27967,0.0629 0.74972,0.34653 0.74973,0.34653 0.66638,0.48468 0.66639,0.48469 0.43976,0.48596 0.43976,0.48596 0.4147,0.63763 0.41471,0.63762 0.22547,0.55489 0.22547,0.55489 0.18345,0.76516 0.18344,0.76516 6.5e-4,0.68199 6.5e-4,0.68199 -0.0965,0.18031 -0.0965,0.18032 h -7.11682 -7.11682 l -0.11894,0.14332 -0.11895,0.14332 0.11408,0.67238 0.11408,0.67237 0.14088,0.5066 0.14089,0.5066 0.19523,0.42563 0.19523,0.42562 0.46548,0.68181 0.46547,0.6818 0.41525,0.36551 0.41524,0.36551 0.52454,0.34888 0.52453,0.34887 0.839,0.32 0.839,0.32 1.2119,0.002 1.21189,0.002 0.64596,-0.21028 0.64596,-0.21028 0.37949,-0.19294 0.37948,-0.19293 0.53752,-0.36426 0.53752,-0.36425 0.68335,-0.67454 0.68335,-0.67453 0.3538,-0.53287 0.35381,-0.53287 h 0.092 0.092 l 0.50077,0.28651 0.50076,0.28651 v 0.0901 0.0901 l -0.19631,0.39249 -0.1963,0.39248 -0.52043,0.68591 -0.52043,0.68591 -0.61168,0.48796 -0.61169,0.48796 -0.74578,0.43316 -0.74577,0.43316 -0.55934,0.19763 -0.55933,0.19763 -0.87132,0.17632 -0.87132,0.17631 -0.71346,-0.0114 -0.71347,-0.0114 z m 7.74911,-9.92311 0.0557,-0.14526 -0.1513,-0.62382 -0.1513,-0.62383 -0.38554,-0.78431 -0.38554,-0.78431 -0.71041,-0.70815 -0.71041,-0.70816 -0.60595,-0.35066 -0.60594,-0.35066 -0.51273,-0.14854 -0.51272,-0.14853 -0.21414,-0.0825 -0.21413,-0.0825 h -1.32517 -1.32516 l -0.73043,0.23182 -0.73043,0.23183 -0.52694,0.3209 -0.52694,0.32091 -0.4028,0.34579 -0.40279,0.3458 -0.35631,0.48232 -0.35632,0.48232 -0.32417,0.64674 -0.32418,0.64674 -0.15192,0.52707 -0.15191,0.52707 v 0.22648 0.22648 l 0.0622,0.0622 0.0622,0.0621 h 6.2799 6.2799 z m -52.36859,9.55499 -0.0848,-0.0523 0.0237,-11.27418 0.0237,-11.27418 h 0.83901 0.839 l 0.0237,11.2233 0.0237,11.22329 -0.10341,0.1246 -0.1034,0.1246 -0.69822,-0.0214 -0.69821,-0.0214 z m 28.85928,-0.0139 -0.0459,-0.12018 0.0241,-7.97051 0.0241,-7.97052 h 0.839 0.83901 l 0.0262,1.14198 0.0262,1.14197 h 0.12146 0.12147 l 0.353,-0.51253 0.35299,-0.51253 0.59589,-0.55743 0.59589,-0.55742 0.77473,-0.37499 0.77473,-0.37499 h 0.49157 0.49156 l 0.48921,0.14221 0.48921,0.14222 0.15928,0.11647 0.15928,0.11647 -0.34654,0.66515 -0.34654,0.66515 -0.86558,-0.0516 -0.86559,-0.0516 -0.41006,0.11481 -0.41006,0.11481 -0.4569,0.34411 -0.45691,0.34411 -0.48946,0.64986 -0.48946,0.64987 -0.22535,0.47579 -0.22536,0.47579 -0.16924,0.50305 -0.16923,0.50304 -0.0482,5.4069 -0.0482,5.4069 -0.81722,0.027 -0.81723,0.0269 z m -86.008012,-11.60984 -0.411023,-0.4428 -0.655733,-0.79239 -0.655732,-0.7924 -0.73702,-0.97883 -0.737019,-0.97884 -1.221031,-1.53817 -1.221032,-1.53817 -1.015074,-1.35172 -1.015073,-1.35173 -0.457297,-0.53662 -0.457296,-0.53663 0.05749,-0.14981 0.05749,-0.14981 0.208618,0.0559 0.208618,0.0559 0.625619,0.001 0.62562,0.001 0.194697,0.20898 0.194698,0.20899 0.912352,1.21266 0.912352,1.21266 1.242132,1.678 1.242133,1.678 1.616402,2.0693 1.616402,2.0693 v 0.13299 0.13299 l -0.241026,0.43125 -0.241026,0.43124 H 72.707357 72.58825 Z"
         id="path40" /><path
         style="fill:#5e5e5e"
         d="m 157.9556,169.43113 -0.32514,-0.11126 -0.0284,-0.14806 -0.0284,-0.14805 1.09903,-0.94731 1.09903,-0.94731 h 0.1132 0.11319 l 0.0949,0.35252 0.0949,0.35253 -0.09,0.32592 -0.09,0.32592 -0.39753,0.3892 -0.39754,0.3892 -0.34659,0.14425 -0.34659,0.14424 -0.11952,-0.005 -0.11953,-0.005 z m -2.24905,-2.23207 -1.33327,-1.51487 -1.19252,-1.32187 -1.19253,-1.32187 v -0.1829 -0.18291 l 0.8157,-0.73729 0.81569,-0.73729 0.26232,-0.19981 0.26231,-0.19982 0.12382,0.0475 0.12383,0.0475 1.47831,1.63811 1.47831,1.63812 1.08746,1.22145 1.08746,1.22145 -0.062,0.105 -0.062,0.105 -1.08792,0.94466 -1.08793,0.94466 h -0.0919 -0.0919 z m 3.22675,-0.50734 v -0.20437 l -2.21047,-2.4581 -2.21046,-2.4581 -0.1933,-0.17494 -0.1933,-0.17493 -0.19084,0.19084 -0.19084,0.19084 0.81589,0.92195 0.81588,0.92195 0.75519,0.839 0.75518,0.839 0.82719,0.91364 0.82719,0.91365 0.19634,-0.028 0.19635,-0.028 z m -50.67555,0.99102 -0.0848,-0.0523 0.0237,-11.04112 0.0237,-11.04112 h 0.74578 0.74578 l 0.0658,1.25104 0.0658,1.25104 0.13793,0.13794 0.13794,0.13793 0.86834,-0.83508 0.86833,-0.83509 0.44996,-0.30692 0.44996,-0.30693 0.76193,-0.35271 0.76194,-0.3527 0.46611,-0.10135 0.46611,-0.10135 0.43748,-0.0959 0.43747,-0.0959 0.58797,0.002 0.58797,0.002 0.74578,0.13382 0.74578,0.13382 0.27967,0.0614 0.27967,0.0614 0.85109,0.39763 0.85109,0.39764 0.54725,0.40005 0.54724,0.40005 0.65256,0.66128 0.65255,0.66128 0.4471,0.67209 0.44709,0.67208 0.25844,0.63168 0.25844,0.63167 0.17889,0.60595 0.17889,0.60594 -0.004,1.49156 -0.004,1.49156 -0.24958,0.71164 -0.24958,0.71164 -0.19403,0.45265 -0.19403,0.45265 -0.50013,0.75165 -0.50012,0.75164 -0.72925,0.69671 -0.72924,0.69672 -0.7191,0.44819 -0.7191,0.4482 -0.66228,0.27826 -0.66229,0.27826 -0.92875,0.18004 -0.92875,0.18004 -0.67256,-10e-4 -0.67255,-0.001 -0.88562,-0.2205 -0.88561,-0.22049 -0.46611,-0.21419 -0.46611,-0.2142 -0.63316,-0.40386 -0.63316,-0.40386 -0.8385,-0.80831 -0.8385,-0.80832 -0.15747,0.15747 -0.15747,0.15747 -0.0365,4.28717 -0.0365,4.28716 -0.10555,0.01 -0.10555,0.01 -0.63804,0.0136 -0.63805,0.0136 z m 10.2952,-7.40333 0.6269,-0.22739 0.54347,-0.28966 0.54347,-0.28967 0.59555,-0.49438 0.59555,-0.49438 0.42762,-0.54827 0.42761,-0.54826 0.27581,-0.51272 0.27581,-0.51273 0.15701,-0.49431 0.157,-0.49432 0.10795,-0.61988 0.10795,-0.61988 -0.0581,-1.07653 -0.0581,-1.07653 -0.13801,-0.4973 -0.13801,-0.4973 -0.23654,-0.51667 -0.23654,-0.51667 -0.41359,-0.5796 -0.41359,-0.5796 -0.54168,-0.49511 -0.54168,-0.49512 -0.46611,-0.30582 -0.46611,-0.30583 -0.60595,-0.22556 -0.60595,-0.22556 -0.33289,-0.10669 -0.3329,-0.10668 h -1.2064 -1.2064 l -0.74465,0.23631 -0.74465,0.23631 -0.61318,0.36425 -0.61318,0.36425 -0.48608,0.43702 -0.48607,0.43702 -0.41883,0.5443 -0.41883,0.5443 -0.32221,0.67876 -0.3222,0.67876 -0.12958,0.51273 -0.12957,0.51272 -0.0537,1.02545 -0.0537,1.02544 0.0803,0.65256 0.0803,0.65256 0.096,0.36581 0.096,0.36581 0.34616,0.70042 0.34617,0.70042 0.78958,0.81907 0.78958,0.81906 0.71156,0.41495 0.71155,0.41494 0.60594,0.20449 0.60595,0.20448 0.46611,0.0767 0.46611,0.0767 0.93753,-0.0429 0.93753,-0.0429 z m -68.316981,3.21386 -0.372889,-0.0734 -0.64743,-0.10868 -0.64743,-0.10868 -0.823346,-0.31797 -0.823346,-0.31798 -0.67334,-0.39165 -0.673339,-0.39165 -0.512724,-0.37176 -0.512723,-0.37177 -0.795732,-0.8007 -0.795732,-0.8007 -0.432636,-0.60821 -0.432636,-0.60822 -0.3148,-0.55706 -0.3148,-0.55707 -0.338358,-0.79239 -0.338358,-0.79239 -0.248495,-0.88561 -0.248495,-0.88562 -0.12895,-0.839 -0.128951,-0.839 -0.0017,-1.0108 -0.0017,-1.0108 0.19172,-0.94687 0.191719,-0.94687 0.324353,-0.97327 0.324353,-0.97327 0.512839,-0.9844 0.512839,-0.9844 0.623723,-0.839 0.623723,-0.83901 0.561398,-0.54246 0.561398,-0.54246 0.736273,-0.55898 0.736273,-0.55897 0.906779,-0.45504 0.906778,-0.45505 0.594286,-0.18757 0.594286,-0.18757 0.779383,-0.1437 0.779383,-0.1437 h 0.958276 0.958275 l 0.872569,0.18142 0.87257,0.18143 0.532053,0.18507 0.532053,0.18508 0.77306,0.38844 0.773061,0.38845 0.734558,0.52686 0.734557,0.52686 0.730003,0.72476 0.730002,0.72475 0.406181,0.53375 0.406181,0.53375 0.346967,0.57758 0.346968,0.57758 0.358665,0.77414 0.358664,0.77415 0.186394,0.55933 0.186394,0.55934 0.100116,0.4195 0.100116,0.4195 0.10492,0.51272 0.10492,0.51273 0.05141,1.17363 0.05141,1.17364 -0.1611,0.97048 -0.1611,0.97048 -0.121764,0.46611 -0.121764,0.46611 -0.205071,0.60595 -0.20507,0.60594 -0.404188,0.839 -0.404188,0.83901 -0.4896,0.74577 -0.489601,0.74578 -1.031544,1.03581 -1.031544,1.03581 -0.745779,0.48704 -0.745779,0.48703 -0.745779,0.35513 -0.74578,0.35513 -0.647785,0.19892 -0.647785,0.19891 -0.913077,0.13715 -0.913076,0.13714 -0.629865,-0.01 -0.629865,-0.01 z m 3.309396,-1.86188 0.699168,-0.20206 0.756857,-0.35449 0.756857,-0.35449 0.594868,-0.40213 0.594868,-0.40212 0.845268,-0.84485 0.845268,-0.84485 0.470147,-0.69917 0.470147,-0.69917 0.291975,-0.5786 0.291974,-0.5786 0.244414,-0.72651 0.244415,-0.72651 0.131043,-0.50115 0.131043,-0.50115 0.09358,-1.13024 0.09358,-1.13025 -0.102061,-0.88561 -0.102062,-0.88561 -0.191582,-0.79239 -0.191583,-0.79239 -0.350864,-0.81628 -0.350864,-0.81628 -0.387669,-0.65254 -0.387669,-0.65255 -0.480881,-0.58207 -0.480882,-0.58207 -0.56337,-0.54402 -0.563369,-0.54402 -0.756113,-0.5047 -0.756113,-0.50469 -0.642188,-0.29119 -0.642188,-0.29118 -0.885648,-0.22047 -0.885648,-0.22048 -0.902824,-0.001 -0.902824,-0.001 -0.681957,0.14055 -0.681957,0.14055 -0.74578,0.29333 -0.745779,0.29333 -0.605946,0.36608 -0.605945,0.36608 -0.491009,0.37789 -0.491008,0.37788 -0.52834,0.57007 -0.528341,0.57008 -0.521383,0.70257 -0.521383,0.70257 -0.383402,0.74238 -0.383401,0.74237 -0.235608,0.66013 -0.235608,0.66013 -0.203318,0.94962 -0.203318,0.94962 0.04108,1.60642 0.04108,1.60643 0.239674,0.89813 0.239674,0.89813 0.298527,0.68665 0.298527,0.68665 0.421675,0.71432 0.421675,0.71432 0.644096,0.75636 0.644097,0.75636 0.699128,0.55557 0.699128,0.55558 0.425862,0.24957 0.425862,0.24957 0.804908,0.3433 0.804908,0.3433 0.559335,0.10583 0.559334,0.10583 0.186445,0.0434 0.186445,0.0434 1.211891,-0.0326 1.211892,-0.0326 z m 40.163985,1.81086 -1.086932,-0.1184 -0.748409,-0.19399 -0.74841,-0.194 -0.448607,-0.14836 -0.448608,-0.14836 -0.745779,-0.35909 -0.74578,-0.35909 -0.686236,-0.46064 -0.686236,-0.46065 -0.548961,-0.48321 -0.54896,-0.48322 v -0.13699 -0.137 l 0.277581,-0.54988 0.277581,-0.54989 0.09417,-0.0582 0.09417,-0.0582 0.443943,0.41279 0.443944,0.41278 0.647387,0.51698 0.647387,0.51697 0.588121,0.32689 0.58812,0.32688 0.722163,0.27549 0.722163,0.27548 0.605946,0.146 0.605945,0.146 1.165281,0.10953 1.16528,0.10953 1.025446,-0.0645 1.025447,-0.0645 0.652557,-0.12566 0.652557,-0.12565 0.466112,-0.15791 0.466112,-0.15791 0.507025,-0.2462 0.50702,-0.24621 0.492,-0.44931 0.49199,-0.4493 0.27408,-0.48292 0.27408,-0.48292 0.14855,-0.50634 0.14854,-0.50633 -10e-4,-0.65895 -0.001,-0.65894 -0.13604,-0.44839 -0.13605,-0.44839 -0.25518,-0.46886 -0.25519,-0.46886 -0.49728,-0.45449 -0.49729,-0.45449 -0.817303,-0.40914 -0.817297,-0.40914 -1.159765,-0.3752 -1.159765,-0.3752 -0.37289,-0.0969 -0.372889,-0.0969 -0.37289,-0.0971 -0.37289,-0.0971 -1.211891,-0.29599 -1.211891,-0.29599 -1.025447,-0.34673 -1.025446,-0.34673 -0.693352,-0.34993 -0.693352,-0.34992 -0.47471,-0.35069 -0.474711,-0.35069 -0.484173,-0.52976 -0.484173,-0.52976 -0.304116,-0.62444 -0.304116,-0.62443 0.005,-1.44495 0.005,-1.44494 0.200516,-0.50331 0.200517,-0.50331 0.305933,-0.51358 0.305933,-0.51357 0.498382,-0.54343 0.498382,-0.54343 0.566356,-0.42574 0.566356,-0.42573 0.753099,-0.36164 0.753099,-0.36164 0.605946,-0.19054 0.605945,-0.19054 0.827908,-0.14192 0.827907,-0.14191 1.083152,3.7e-4 1.083152,3.8e-4 0.885613,0.14201 0.885613,0.14201 0.652557,0.19616 0.652557,0.19616 0.932224,0.45228 0.93223,0.45229 0.73898,0.55538 0.73899,0.55538 0.0766,0.13691 0.0766,0.13691 -0.42453,0.52116 -0.42454,0.52116 h -0.071 -0.071 l -0.73955,-0.56037 -0.73955,-0.56037 -0.838999,-0.41491 -0.839002,-0.4149 -0.839002,-0.25206 -0.839002,-0.25206 -1.911059,-0.008 -1.91106,-0.008 -0.745779,0.214 -0.745779,0.214 -0.692269,0.34533 -0.692269,0.34534 -0.534861,0.49199 -0.53486,0.49199 -0.281621,0.44023 -0.281621,0.44023 -0.168449,0.46612 -0.16845,0.46611 -8.03e-4,1.02544 -8.04e-4,1.02545 0.222156,0.4195 0.222156,0.4195 0.276697,0.35161 0.276698,0.35161 0.573204,0.40648 0.573205,0.40649 0.570973,0.28611 0.570973,0.28611 0.967196,0.3211 0.967197,0.3211 0.396195,0.10295 0.396196,0.10295 0.349584,0.0888 0.349584,0.0888 0.839001,0.1953 0.839002,0.1953 0.37289,0.10071 0.372889,0.1007 0.978836,0.32485 0.978835,0.32485 0.657842,0.3014 0.65785,0.30141 0.55405,0.35442 0.55404,0.35442 0.63842,0.6155 0.63842,0.6155 0.22345,0.38034 0.22346,0.38034 0.17555,0.51026 0.17556,0.51026 0.0608,0.74079 0.0608,0.7408 -0.0834,0.69916 -0.0834,0.69917 -0.29465,0.70715 -0.29466,0.70714 -0.5166,0.6263 -0.5166,0.6263 -0.61139,0.44895 -0.61139,0.44895 -0.571,0.28207 -0.571,0.28208 -0.466112,0.16063 -0.466112,0.16062 -0.326278,0.0827 -0.326279,0.0827 -1.118669,0.13746 -1.118669,0.13746 -0.79239,-0.0112 -0.792391,-0.0112 z m -72.372799,-0.25176 -0.05063,-0.20975 0.02555,-11.97908 0.02555,-11.97908 7.843812,-0.0238 7.843812,-0.0238 0.03764,0.11705 0.03764,0.11706 -0.03574,0.58264 -0.03574,0.58264 -6.913484,0.001 -6.913484,0.001 -0.117392,0.0745 -0.117392,0.0745 0.02417,4.74831 0.02417,4.74831 6.19929,0.0466 6.199291,0.0466 v 0.74578 0.74578 l -6.199291,0.0466 -6.19929,0.0466 v 5.03401 5.03401 l 7.224737,0.0466 7.224737,0.0466 0.02708,0.76909 0.02708,0.76908 h -8.065732 -8.065733 z m 60.35922,-0.60771 -0.608708,-0.81393 -2.144938,-2.84328 -2.144938,-2.84329 -0.793139,-0.97883 -0.793138,-0.97884 -0.345803,-0.47935 -0.345803,-0.47935 -0.14508,-0.34723 -0.145079,-0.34722 0.04948,-0.12895 0.04948,-0.12896 h 0.120835 0.120834 l 0.342116,-0.18336 0.342116,-0.18336 0.460399,0.57956 0.4604,0.57955 0.996823,1.2119 0.996823,1.21189 1.508677,2.00069 1.508676,2.0007 1.370464,1.90763 1.370464,1.90763 -0.04755,0.0769 -0.04755,0.0769 -0.763583,-0.002 -0.763583,-0.002 z m 62.110629,-0.63436 -0.5842,-0.12798 -0.72091,-0.28787 -0.72091,-0.28788 -0.4195,-0.24338 -0.4195,-0.24339 -0.48556,-0.35693 -0.48556,-0.35693 -0.52622,-0.53594 -0.52621,-0.53594 -0.40105,-0.55934 -0.40105,-0.55933 -0.32557,-0.65256 -0.32557,-0.65255 -0.19363,-0.63148 -0.19362,-0.63148 -0.10288,-0.81347 -0.10288,-0.81347 0.0636,-0.79239 0.0636,-0.79239 0.21363,-0.84493 0.21363,-0.84493 0.37461,-0.73985 0.37462,-0.73985 0.33092,-0.46101 0.33091,-0.46102 0.58606,-0.59854 0.58605,-0.59854 0.56601,-0.40502 0.56601,-0.40501 0.78572,-0.37563 0.78571,-0.37562 0.74578,-0.20258 0.74578,-0.20257 h 1.39834 1.39833 l 0.71767,0.19658 0.71767,0.19659 0.70937,0.32774 0.70936,0.32775 0.62386,0.41532 0.62386,0.41532 0.55076,0.54379 0.55075,0.54378 0.41491,0.55933 0.41491,0.55934 0.30512,0.60594 0.30513,0.60595 0.24427,0.77452 0.24427,0.77452 0.0951,0.85687 0.0951,0.85687 -0.0884,0.83901 -0.0884,0.839 -0.10353,0.45639 -0.10353,0.45639 -0.32681,0.7895 -0.32681,0.78949 -0.30996,0.47873 -0.30995,0.47873 -0.32358,0.40348 -0.32357,0.40348 0.50962,0.52874 0.50961,0.52875 0.14815,0.2243 0.14814,0.2243 -0.59232,0.54478 -0.59232,0.54479 h -0.086 -0.086 l -0.34412,-0.27406 -0.34412,-0.27406 -0.44798,-0.11121 -0.44799,-0.1112 -0.43763,0.0548 -0.43762,0.0548 -0.71415,0.27836 -0.71416,0.27836 -0.70356,0.14533 -0.70356,0.14532 -1.1459,-0.009 -1.1459,-0.009 z m 4.10142,-1.41187 0.81377,-0.28233 0.64603,-0.3838 0.64604,-0.3838 0.52707,-0.48171 0.52707,-0.48172 0.42946,-0.55812 0.42946,-0.55812 0.34866,-0.71132 0.34867,-0.71132 0.15246,-0.55696 0.15247,-0.55696 0.0517,-1.11867 0.0517,-1.11866 -0.14198,-0.66515 -0.14198,-0.66515 -0.25437,-0.63997 -0.25436,-0.63996 -0.32486,-0.511 -0.32487,-0.51099 -0.38355,-0.45498 -0.38355,-0.45498 -0.56626,-0.45067 -0.56627,-0.45066 -0.75265,-0.37557 -0.75264,-0.37557 -0.73198,-0.20138 -0.73198,-0.20138 -1.02545,-0.006 -1.02545,-0.006 -0.55933,0.12305 -0.55934,0.12305 -0.69901,0.27704 -0.69902,0.27703 -0.6061,0.40924 -0.60609,0.40924 -0.45026,0.43369 -0.45025,0.43369 -0.37383,0.47293 -0.37383,0.47293 -0.30712,0.61027 -0.30713,0.61027 -0.20667,0.65256 -0.20667,0.65256 -0.0492,1.07751 -0.0492,1.0775 0.15649,0.78694 0.15648,0.78694 0.45412,0.93223 0.45411,0.93222 0.51344,0.61866 0.51344,0.61865 0.55913,0.43024 0.55912,0.43024 0.68276,0.36738 0.68277,0.36739 0.69916,0.18655 0.69917,0.18655 0.23306,0.045 0.23306,0.045 1.16528,-0.0253 1.16528,-0.0253 z m -2.95788,-0.18601 -0.27967,-0.0386 -0.74578,-0.18002 -0.74578,-0.18003 -0.66896,-0.33596 -0.66897,-0.33597 -0.61354,-0.50607 -0.61354,-0.50608 -0.42752,-0.5334 -0.42753,-0.53341 -0.36175,-0.74578 -0.36176,-0.74578 -0.14336,-0.55933 -0.14336,-0.55933 -0.0576,-0.74738 -0.0576,-0.74738 0.11629,-0.69757 0.1163,-0.69757 0.25423,-0.69917 0.25422,-0.69917 0.35455,-0.55933 0.35455,-0.55933 0.7145,-0.69917 0.7145,-0.69917 0.83316,-0.43542 0.83315,-0.43542 0.55934,-0.14251 0.55933,-0.1425 0.95553,-0.0647 0.95553,-0.0647 v 0.093 0.093 l -0.90892,0.0507 -0.90891,0.0507 -0.68704,0.24074 -0.68704,0.24074 -0.57147,0.32152 -0.57146,0.32152 -0.4755,0.40273 -0.4755,0.40272 -0.45633,0.57901 -0.45633,0.57901 -0.2547,0.49305 -0.25471,0.49305 -0.2118,0.60595 -0.2118,0.60594 0.002,1.39834 0.003,1.39833 0.25524,0.69608 0.25524,0.69607 0.36612,0.61628 0.36612,0.61627 0.42962,0.47784 0.42962,0.47784 0.57791,0.43727 0.5779,0.43728 0.65523,0.3134 0.65524,0.3134 0.64988,0.13766 0.64988,0.13766 0.54153,0.002 0.54153,0.002 -0.0576,0.0932 -0.0576,0.0932 -0.34408,-0.014 -0.34408,-0.014 z m -5.01441,-5.74433 -0.0664,-0.17096 -0.0582,-0.62576 -0.0582,-0.62576 0.11461,-0.67949 0.11461,-0.6795 0.2331,-0.57365 0.2331,-0.57366 0.33478,-0.50437 0.33479,-0.50438 0.49164,-0.48001 0.49165,-0.48002 0.58541,-0.34804 0.5854,-0.34805 0.65255,-0.20676 0.65256,-0.20675 h 1.11867 1.11867 l 0.69917,0.2601 0.69916,0.2601 0.17964,0.13513 0.17964,0.13513 -0.0438,0.0438 -0.0438,0.0438 -0.60195,-0.19407 -0.60194,-0.19408 -1.02545,-0.003 -1.02544,-0.003 -0.71471,0.23515 -0.7147,0.23514 -0.59041,0.33199 -0.59041,0.33199 -0.53493,0.47925 -0.53493,0.47924 -0.46461,0.70773 -0.46462,0.70772 -0.19788,0.59465 -0.19789,0.59465 -0.11131,0.9984 -0.11132,0.99841 z m 34.00991,7.38519 -0.556,-0.081 -0.46945,-0.15324 -0.46944,-0.15324 -0.57212,-0.25651 -0.57213,-0.2565 -0.59315,-0.40079 -0.59316,-0.40078 -0.59462,-0.56536 -0.59462,-0.56536 -0.34222,-0.46611 -0.34223,-0.46611 -0.25636,-0.44399 -0.25637,-0.44399 -0.22441,-0.59621 -0.22442,-0.59622 -0.14385,-0.62028 -0.14385,-0.62028 v -1.24693 -1.24693 l 0.14669,-0.63252 0.14669,-0.63252 0.28815,-0.7483 0.28815,-0.74829 0.23105,-0.4195 0.23104,-0.4195 0.179,-0.25571 0.17899,-0.2557 0.43693,-0.50731 0.43693,-0.50732 0.64592,-0.52613 0.64592,-0.52613 0.7058,-0.34807 0.70581,-0.34806 0.65255,-0.19775 0.65256,-0.19775 0.65256,-0.10957 0.65255,-0.10957 0.88562,0.0491 0.88561,0.0491 0.4195,0.0959 0.4195,0.0959 0.27967,0.0629 0.27967,0.0629 0.74972,0.34653 0.74973,0.34653 0.66638,0.48468 0.66639,0.48469 0.43976,0.48596 0.43976,0.48596 0.4147,0.63763 0.41471,0.63762 0.22547,0.55489 0.22547,0.55489 0.18345,0.76516 0.18344,0.76516 6.5e-4,0.68199 6.5e-4,0.68199 -0.0965,0.18031 -0.0965,0.18032 h -7.11682 -7.11682 l -0.11894,0.14332 -0.11895,0.14332 0.11408,0.67238 0.11408,0.67237 0.14088,0.5066 0.14089,0.5066 0.19523,0.42563 0.19523,0.42562 0.46548,0.68181 0.46547,0.6818 0.41525,0.36551 0.41524,0.36551 0.52454,0.34888 0.52453,0.34887 0.839,0.32 0.839,0.32 1.2119,0.002 1.21189,0.002 0.64596,-0.21028 0.64596,-0.21028 0.37949,-0.19294 0.37948,-0.19293 0.53752,-0.36426 0.53752,-0.36425 0.68335,-0.67454 0.68335,-0.67453 0.3538,-0.53287 0.35381,-0.53287 h 0.092 0.092 l 0.50077,0.28651 0.50076,0.28651 v 0.0901 0.0901 l -0.19631,0.39249 -0.1963,0.39248 -0.52043,0.68591 -0.52043,0.68591 -0.61168,0.48796 -0.61169,0.48796 -0.74578,0.43316 -0.74577,0.43316 -0.55934,0.19763 -0.55933,0.19763 -0.87132,0.17632 -0.87132,0.17631 -0.71346,-0.0114 -0.71347,-0.0114 z m 7.74911,-9.92311 0.0557,-0.14526 -0.1513,-0.62382 -0.1513,-0.62383 -0.38554,-0.78431 -0.38554,-0.78431 -0.71041,-0.70815 -0.71041,-0.70816 -0.60595,-0.35066 -0.60594,-0.35066 -0.51273,-0.14854 -0.51272,-0.14853 -0.21414,-0.0825 -0.21413,-0.0825 h -1.32517 -1.32516 l -0.73043,0.23182 -0.73043,0.23183 -0.52694,0.3209 -0.52694,0.32091 -0.4028,0.34579 -0.40279,0.3458 -0.35631,0.48232 -0.35632,0.48232 -0.32417,0.64674 -0.32418,0.64674 -0.15192,0.52707 -0.15191,0.52707 v 0.22648 0.22648 l 0.0622,0.0622 0.0622,0.0621 h 6.2799 6.2799 z m -52.36859,9.55499 -0.0848,-0.0523 0.0237,-11.27418 0.0237,-11.27418 h 0.83901 0.839 l 0.0237,11.2233 0.0237,11.22329 -0.10341,0.1246 -0.1034,0.1246 -0.69822,-0.0214 -0.69821,-0.0214 z m 28.85928,-0.0139 -0.0459,-0.12018 0.0241,-7.97051 0.0241,-7.97052 h 0.839 0.83901 l 0.0262,1.14198 0.0262,1.14197 h 0.12146 0.12147 l 0.353,-0.51253 0.35299,-0.51253 0.59589,-0.55743 0.59589,-0.55742 0.77473,-0.37499 0.77473,-0.37499 h 0.49157 0.49156 l 0.48921,0.14221 0.48921,0.14222 0.15928,0.11647 0.15928,0.11647 -0.34654,0.66515 -0.34654,0.66515 -0.86558,-0.0516 -0.86559,-0.0516 -0.41006,0.11481 -0.41006,0.11481 -0.4569,0.34411 -0.45691,0.34411 -0.48946,0.64986 -0.48946,0.64987 -0.22535,0.47579 -0.22536,0.47579 -0.16924,0.50305 -0.16923,0.50304 -0.0482,5.4069 -0.0482,5.4069 -0.81722,0.027 -0.81723,0.0269 z m -86.008012,-11.60984 -0.411023,-0.4428 -0.655733,-0.79239 -0.655732,-0.7924 -0.73702,-0.97883 -0.737019,-0.97884 -1.221031,-1.53817 -1.221032,-1.53817 -1.015074,-1.35172 -1.015073,-1.35173 -0.457297,-0.53662 -0.457296,-0.53663 0.05749,-0.14981 0.05749,-0.14981 0.208618,0.0559 0.208618,0.0559 0.625619,0.001 0.62562,0.001 0.194697,0.20898 0.194698,0.20899 0.912352,1.21266 0.912352,1.21266 1.242132,1.678 1.242133,1.678 1.616402,2.0693 1.616402,2.0693 v 0.13299 0.13299 l -0.241026,0.43125 -0.241026,0.43124 H 72.707357 72.58825 Z"
         id="path39" /><path
         style="fill:#060606"
         d="m 158.28074,169.41157 -0.0932,-0.0288 -0.26255,-0.0581 -0.26256,-0.0581 0.0295,-0.12155 0.0295,-0.12155 1.05218,-0.91267 1.05218,-0.91267 0.0461,0.0461 0.0461,0.046 0.0792,0.2762 0.0792,0.2762 -0.12132,0.35292 -0.12133,0.35292 -0.26373,0.27748 -0.26374,0.27748 -0.23305,0.11842 -0.23306,0.11843 -0.23306,0.05 -0.23305,0.05 z m -3.68228,-3.58967 -2.47039,-2.788 -0.0267,-0.16642 -0.0267,-0.16641 0.89718,-0.79239 0.89718,-0.79239 0.13736,-0.0777 0.13736,-0.0777 0.12316,0.0473 0.12316,0.0473 1.38604,1.52598 1.38605,1.52598 1.07205,1.19002 1.07206,1.19001 0.0273,0.11971 0.0273,0.11971 -0.15728,0.13052 -0.15728,0.13053 0.0634,-0.19984 0.0634,-0.19985 -0.63262,-0.68699 -0.63262,-0.68699 -1.80956,-2.02563 -1.80956,-2.02563 h -0.15697 -0.15697 l -0.15428,0.17048 -0.15428,0.17048 0.004,0.0859 0.004,0.0859 0.25258,0.28759 0.25257,0.28759 1.49156,1.65939 1.49156,1.6594 0.62497,0.70375 0.62496,0.70375 0.149,0.0834 0.149,0.0834 0.15146,-0.12389 0.15146,-0.1239 -0.0864,0.14553 -0.0864,0.14552 -0.81092,0.71678 -0.81092,0.71679 -0.0747,-0.005 -0.0747,-0.005 z m -46.30862,-9.20359 0.0237,-10.97694 h 0.65256 0.65256 l 0.0467,1.221 0.0467,1.22099 0.12784,0.15404 0.12784,0.15404 h 0.13751 0.13751 l 0.8999,-0.87191 0.89989,-0.87191 0.51266,-0.32791 0.51266,-0.32792 0.65255,-0.27527 0.65256,-0.27528 0.4195,-0.10255 0.4195,-0.10255 0.67625,-0.11538 0.67624,-0.11538 0.95515,0.11681 0.95514,0.11682 0.41951,0.12015 0.4195,0.12015 0.59061,0.24088 0.59061,0.24088 0.76111,0.50717 0.76112,0.50717 0.65928,0.6847 0.65928,0.68471 0.3977,0.58964 0.39769,0.58963 0.21328,0.48243 0.21329,0.48242 0.15904,0.46611 0.15905,0.46611 0.13204,0.74578 0.13204,0.74578 -0.002,0.60595 -0.002,0.60594 -0.12709,0.69917 -0.12709,0.69917 -0.15688,0.46611 -0.15687,0.46611 -0.23671,0.51273 -0.2367,0.51272 -0.40692,0.60595 -0.40692,0.60594 -0.72527,0.71203 -0.72528,0.71204 -0.57301,0.38495 -0.57302,0.38495 -0.68548,0.31334 -0.68549,0.31334 -0.60595,0.16197 -0.60594,0.16198 -1.2119,0.045 -1.21189,0.045 -0.74774,-0.18711 -0.74774,-0.18711 -0.51076,-0.23387 -0.51076,-0.23387 -0.71218,-0.46519 -0.71217,-0.4652 -0.69639,-0.70777 -0.69638,-0.70778 h -0.1415 -0.1415 l -0.12795,0.15405 -0.12794,0.15405 -0.0292,4.27402 -0.0292,4.27401 h -0.74023 -0.74024 z m 10.13832,3.84447 0.4195,-0.14848 0.7924,-0.38881 0.79239,-0.3888 0.93846,-0.93481 0.93846,-0.93481 0.4371,-0.88739 0.43709,-0.88739 0.14728,-0.69739 0.14728,-0.6974 -0.0397,-1.30511 -0.0397,-1.30511 -0.23109,-0.70075 -0.2311,-0.70075 -0.40071,-0.68611 -0.40071,-0.68611 -0.61823,-0.62829 -0.61823,-0.62828 -0.65256,-0.41605 -0.65256,-0.41604 -0.51272,-0.18924 -0.51272,-0.18924 -0.37289,-0.12307 -0.37289,-0.12306 -1.21189,0.002 -1.21189,0.002 -0.69917,0.21945 -0.69917,0.21946 -0.51272,0.27668 -0.51273,0.27667 -0.54272,0.41477 -0.54272,0.41476 -0.49664,0.60211 -0.49665,0.60211 -0.29118,0.5463 -0.29117,0.5463 -0.23985,0.72875 -0.23986,0.72875 -0.0118,1.63139 -0.0117,1.63139 0.21324,0.60595 0.21323,0.60594 0.10693,0.23306 0.10692,0.23306 0.3886,0.60594 0.3886,0.60595 0.59372,0.57357 0.59372,0.57357 0.5299,0.33429 0.5299,0.3343 0.49555,0.19809 0.49554,0.1981 0.27967,0.0939 0.27967,0.0939 0.4195,0.0759 0.4195,0.0759 1.07206,-0.0367 1.07205,-0.0367 z m -68.332024,2.88408 -0.792391,-0.12145 -0.605946,-0.16146 -0.605945,-0.16145 -0.622406,-0.25574 -0.622406,-0.25574 -0.642516,-0.37525 -0.642517,-0.37525 -0.557316,-0.41894 -0.557315,-0.41895 -0.749921,-0.78113 -0.749921,-0.78114 -0.472365,-0.67262 -0.472364,-0.67262 -0.418548,-0.85981 -0.418548,-0.8598 -0.238806,-0.69917 -0.238806,-0.69917 -0.185239,-0.74578 -0.185239,-0.74578 -0.09814,-0.78994 -0.09814,-0.78995 3.54e-4,-0.655 3.55e-4,-0.655 0.131555,-0.79239 0.131555,-0.79239 0.137096,-0.51273 0.137097,-0.51272 0.249128,-0.74578 0.249128,-0.74578 0.416157,-0.82297 0.416158,-0.82297 0.455453,-0.66859 0.455453,-0.66859 0.452856,-0.55608 0.452856,-0.55608 0.651099,-0.54942 0.651099,-0.54942 0.512723,-0.35001 0.512723,-0.35001 0.839002,-0.42345 0.839002,-0.42344 0.466112,-0.15674 0.466112,-0.15673 0.466112,-0.0963 0.466112,-0.0963 1.398336,-0.0443 1.398336,-0.0443 0.652557,0.10983 0.652557,0.10982 0.79239,0.26546 0.792391,0.26545 0.79239,0.42015 0.792391,0.42016 0.732575,0.54187 0.732575,0.54188 0.712372,0.75129 0.712373,0.75129 0.475095,0.69366 0.475094,0.69366 0.276755,0.51272 0.276755,0.51272 0.309742,0.74578 0.309742,0.74578 0.176819,0.60595 0.176819,0.60594 0.154126,0.79239 0.154127,0.79239 6.96e-4,1.30512 6.97e-4,1.30511 -0.203568,0.98693 -0.203568,0.98694 -0.240694,0.73768 -0.240694,0.73768 -0.368764,0.78718 -0.368765,0.78718 -0.617035,0.92686 -0.617034,0.92686 -0.856871,0.85132 -0.85687,0.85131 -0.795341,0.53469 -0.79534,0.53468 -0.688133,0.31462 -0.688133,0.31462 -0.559335,0.18914 -0.559334,0.18914 -0.466112,0.0958 -0.466112,0.0958 -0.677593,0.0992 -0.677593,0.0992 -0.394465,-0.0126 -0.394465,-0.0126 z m 3.191352,-1.5295 0.720959,-0.18168 0.689749,-0.28715 0.68975,-0.28714 0.537148,-0.32346 0.537148,-0.32345 0.771939,-0.65004 0.771939,-0.65005 0.552862,-0.67705 0.552863,-0.67705 0.346039,-0.54145 0.346039,-0.54144 0.282383,-0.62384 0.282383,-0.62383 0.186857,-0.55934 0.186857,-0.55933 0.08461,-0.32628 0.08461,-0.32628 0.137269,-0.74578 0.137269,-0.74578 0.001,-0.88561 10e-4,-0.88561 -0.09088,-0.60595 -0.09088,-0.60594 -0.106491,-0.51273 -0.106491,-0.51272 -0.186081,-0.55933 -0.186081,-0.55934 -0.308481,-0.67485 -0.308481,-0.67485 -0.528103,-0.81671 -0.528103,-0.81671 -1.046425,-1.02544 -1.046424,-1.02545 -0.744452,-0.43837 -0.744453,-0.43838 -0.715886,-0.28665 -0.715886,-0.28666 -0.444202,-0.10235 -0.444201,-0.10235 -1.211552,-0.0428 -1.211551,-0.0428 -0.559674,0.11651 -0.559675,0.1165 -0.586853,0.21842 -0.586852,0.21842 -0.545958,0.2756 -0.545957,0.2756 -0.638416,0.43961 -0.638416,0.4396 -0.699168,0.7164 -0.699168,0.7164 -0.539688,0.75056 -0.539688,0.75057 -0.410066,0.82347 -0.410066,0.82347 -0.238395,0.7143 -0.238396,0.71431 -0.147313,0.68403 -0.147314,0.68403 0.0019,1.50833 0.0019,1.50833 0.150529,0.72901 0.150529,0.72901 0.234243,0.69796 0.234243,0.69797 0.373831,0.74138 0.373831,0.74138 0.288889,0.4251 0.288889,0.4251 0.554139,0.67488 0.55414,0.67488 0.617522,0.50276 0.617523,0.50276 0.585431,0.3763 0.585432,0.3763 0.719682,0.30408 0.719683,0.30408 0.699168,0.16146 0.699168,0.16146 1.211891,0.007 1.211892,0.007 z m 41.042682,1.57604 -0.745779,-0.086 -0.699168,-0.10075 -0.699168,-0.10075 -0.74578,-0.21441 -0.745779,-0.21441 -0.592402,-0.24182 -0.592401,-0.24181 -0.572879,-0.32265 -0.572878,-0.32265 -0.572747,-0.40591 -0.572747,-0.4059 -0.369986,-0.33427 -0.369986,-0.33426 -0.06262,-0.10132 -0.06262,-0.10132 0.284221,-0.56304 0.284221,-0.56304 h 0.04707 0.04707 l 0.767287,0.66406 0.767288,0.66406 0.512723,0.34863 0.512723,0.34863 0.585203,0.29506 0.585203,0.29506 0.831761,0.27867 0.831762,0.27866 0.960207,0.1365 0.960207,0.13649 1.258503,0.001 1.258502,0.001 0.870212,-0.14113 0.870213,-0.14113 0.56532,-0.19044 0.565321,-0.19044 0.548203,-0.27674 0.5482,-0.27673 0.38532,-0.34685 0.38531,-0.34685 0.31863,-0.49671 0.31863,-0.49671 0.17891,-0.52002 0.17891,-0.52003 v -0.84903 -0.84903 l -0.18684,-0.51117 -0.18684,-0.51118 -0.34752,-0.50458 -0.34752,-0.50459 -0.44734,-0.3536 -0.44733,-0.35359 -0.729062,-0.36491 -0.729061,-0.36491 -1.155833,-0.37388 -1.155833,-0.37389 -0.419501,-0.11226 -0.4195,-0.11225 -0.349584,-0.0855 -0.349584,-0.0855 -0.349585,-0.0882 -0.349584,-0.0882 -0.944965,-0.23686 -0.944966,-0.23686 -0.966094,-0.32823 -0.966093,-0.32823 -0.648057,-0.33397 -0.648057,-0.33398 -0.424001,-0.2898 -0.424001,-0.2898 -0.479283,-0.4961 -0.479282,-0.4961 -0.357111,-0.72051 -0.357111,-0.7205 -0.0024,-1.30512 -0.0024,-1.30511 0.222836,-0.60595 0.222835,-0.60594 0.322025,-0.51272 0.322025,-0.51273 0.57357,-0.59094 0.573571,-0.59095 0.524209,-0.36003 0.524209,-0.36003 0.649393,-0.31604 0.649393,-0.31604 0.224734,-0.0677 0.224734,-0.0677 0.326278,-0.0924 0.326279,-0.0924 0.652557,-0.1343 0.652557,-0.1343 1.538169,2e-5 1.53817,2e-5 0.745779,0.13187 0.74578,0.13187 0.744044,0.25044 0.744051,0.25043 0.56107,0.28288 0.56107,0.28288 0.55933,0.3771 0.55934,0.3771 0.34958,0.2783 0.34958,0.2783 v 0.0918 0.0918 l -0.30297,0.40244 -0.30297,0.40243 -0.11087,0.003 -0.11086,0.003 -0.70612,-0.50662 -0.70612,-0.50662 -0.49783,-0.28483 -0.497826,-0.28483 -0.642861,-0.24362 -0.642861,-0.24363 -0.466112,-0.11962 -0.466112,-0.11963 -1.099621,-0.1194 -1.09962,-0.11941 -1.044495,0.11771 -1.044495,0.11771 -0.474628,0.12199 -0.474628,0.122 -0.504207,0.21192 -0.504207,0.21192 -0.605946,0.39082 -0.605946,0.39081 -0.293199,0.31514 -0.293198,0.31513 -0.319487,0.51272 -0.319487,0.51273 -0.155197,0.51272 -0.155197,0.51272 -0.05948,0.52614 -0.05949,0.52613 0.11755,0.49931 0.117551,0.49932 0.180411,0.35885 0.180412,0.35885 0.389572,0.42373 0.389573,0.42373 0.471112,0.34881 0.471112,0.34881 0.554334,0.2796 0.554335,0.27959 0.832474,0.29362 0.832473,0.29362 0.332807,0.0825 0.332806,0.0825 0.605946,0.15104 0.605946,0.15103 0.326278,0.0853 0.326279,0.0853 1.135929,0.28001 1.135929,0.28002 0.914964,0.34164 0.914967,0.34165 0.55933,0.28085 0.55934,0.28084 0.55933,0.37719 0.55934,0.37718 0.5346,0.5432 0.5346,0.5432 0.19937,0.39079 0.19937,0.3908 0.17495,0.50849 0.17494,0.5085 v 1.14087 1.14086 l -0.18305,0.59246 -0.18306,0.59246 -0.33513,0.55934 -0.33513,0.55933 -0.48395,0.49563 -0.48396,0.49562 -0.61296,0.40963 -0.61297,0.40962 -0.43148,0.18496 -0.43148,0.18495 -0.447115,0.15697 -0.447112,0.15698 -0.37289,0.0858 -0.37289,0.0858 -0.79239,0.0871 -0.792391,0.0871 -0.885613,0.0411 -0.885613,0.0411 z m -72.854675,-0.1563 -0.0014,-0.0699 -0.01163,-12.02569 -0.01163,-12.02569 7.750453,-0.0239 7.750454,-0.0238 v 0.60648 0.60649 l -6.921765,0.001 -6.921764,10e-4 -0.121332,0.077 -0.121332,0.077 0.0071,4.7901 0.0071,4.7901 0.07162,0.0716 0.07163,0.0716 6.148695,0.024 6.148694,0.024 0.02911,0.45994 0.02911,0.45993 -0.05419,0.21593 -0.05419,0.21593 h -6.145401 -6.145402 l -0.05678,0.0919 -0.05678,0.0919 0.0044,5.00708 0.0044,5.00709 0.07431,0.0743 0.07431,0.0743 7.174048,0.0239 7.174048,0.0239 0.02739,0.67586 0.02739,0.67586 h -7.974601 -7.9746 z m 60.584387,-0.37289 -0.300165,-0.4428 -0.343478,-0.4195 -0.343478,-0.4195 -1.957841,-2.61023 -1.95784,-2.61023 -1.008457,-1.2585 -1.008458,-1.2585 -0.35649,-0.55049 -0.35649,-0.55048 v -0.24251 -0.24252 l 0.387765,-0.12102 0.387765,-0.12102 0.11461,0.12163 0.11461,0.12163 1.064725,1.30511 1.064725,1.30511 0.838618,1.07206 0.838618,1.07206 1.213579,1.63139 1.213578,1.63139 0.826553,1.16528 0.826552,1.16528 0.215272,0.26352 0.215271,0.26351 v 0.0861 0.0861 h -0.694689 -0.69469 z m 61.631558,-1.05602 -0.79239,-0.17799 -0.88095,-0.42509 -0.88095,-0.42508 -0.62598,-0.46406 -0.62597,-0.46405 -0.54397,-0.58153 -0.54397,-0.58152 -0.33755,-0.5109 -0.33755,-0.5109 -0.23422,-0.46612 -0.23422,-0.46611 -0.24178,-0.7671 -0.24178,-0.7671 -0.10133,-0.83341 -0.10133,-0.83342 0.10183,-0.91325 0.10183,-0.91325 0.14,-0.54028 0.14,-0.54028 0.31443,-0.68996 0.31443,-0.68997 0.37559,-0.55308 0.37559,-0.55308 0.47645,-0.52131 0.47644,-0.52131 0.62526,-0.46211 0.62525,-0.46211 0.60594,-0.328 0.60595,-0.328 0.74798,-0.23301 0.74799,-0.23301 0.78177,-0.11431 0.78178,-0.11431 0.8008,0.0575 0.8008,0.0574 0.79019,0.20048 0.7902,0.20047 0.66986,0.30527 0.66987,0.30527 0.59083,0.3962 0.59084,0.3962 0.74578,0.76196 0.74578,0.76197 0.45758,0.76521 0.45758,0.76521 0.32472,0.95225 0.32471,0.95225 0.0452,1.33013 0.0452,1.33012 -0.10988,0.58094 -0.10988,0.58093 -0.19323,0.60595 -0.19322,0.60594 -0.36011,0.70033 -0.36011,0.70033 -0.5589,0.69801 -0.55889,0.698 -0.002,0.11453 -0.002,0.11453 0.23559,-0.10734 0.23558,-0.10734 0.074,0.086 0.074,0.086 0.4362,0.52277 0.4362,0.52278 v 0.0518 0.0518 l -0.56656,0.47341 -0.56657,0.47341 -0.31885,-0.2432 -0.31886,-0.24321 -0.34978,-0.12482 -0.34977,-0.12482 -0.46611,-0.002 -0.46611,-0.002 -0.93223,0.32876 -0.93222,0.32875 -0.63535,0.13533 -0.63534,0.13534 -1.08927,-0.008 -1.08927,-0.008 z m 3.57066,-0.97814 0.67096,-0.14642 0.93547,-0.45754 0.93547,-0.45755 0.50948,-0.43367 0.50947,-0.43367 0.49755,-0.57046 0.49754,-0.57045 0.36544,-0.65256 0.36545,-0.65256 0.23785,-0.74578 0.23786,-0.74577 0.0539,-1.12361 0.0539,-1.1236 -0.10587,-0.60796 -0.10588,-0.60796 -0.32372,-0.8246 -0.32372,-0.82459 -0.34223,-0.52018 -0.34224,-0.52018 -0.75913,-0.74578 -0.75912,-0.74578 -0.5396,-0.31853 -0.5396,-0.31853 -0.82222,-0.30884 -0.82222,-0.30884 -0.9027,-0.11093 -0.9027,-0.11094 -0.83045,0.11057 -0.83045,0.11057 -0.67722,0.2407 -0.67721,0.24071 -0.5846,0.32277 -0.5846,0.32277 -0.55978,0.46585 -0.55977,0.46585 -0.49454,0.59956 -0.49454,0.59955 -0.38559,0.77008 -0.38559,0.77008 -0.18888,0.79239 -0.18887,0.79239 -6.5e-4,0.93841 -6.6e-4,0.93841 0.0995,0.53839 0.0995,0.53838 0.27981,0.73277 0.27982,0.73277 0.34953,0.5405 0.34953,0.54049 0.55279,0.59681 0.55278,0.59681 0.46626,0.34025 0.46626,0.34025 0.51273,0.28515 0.51272,0.28515 0.60595,0.20398 0.60594,0.20398 0.46611,0.0777 0.46612,0.0777 0.91382,0.011 0.91382,0.011 z m -7.486,-3.86215 -0.0998,-0.18645 h 0.0466 0.0466 l 0.0998,0.18645 0.0998,0.18644 h -0.0466 -0.0466 z m -0.50106,-1.02347 -0.1515,-0.37864 0.007,-0.068 0.007,-0.068 0.18181,0.40978 0.18181,0.40979 -0.0369,0.0369 -0.0369,0.0369 z m -0.46224,-2.0218 -0.0622,-0.0622 0.011,-0.52049 0.011,-0.52049 0.0676,-0.27967 0.0676,-0.27966 -0.004,0.8623 -0.004,0.86231 h -0.012 -0.012 z m 1.06283,-0.46568 -0.006,-0.38799 0.13762,-0.71931 0.13763,-0.7193 0.38212,-0.78945 0.38211,-0.78945 0.66885,-0.67541 0.66884,-0.6754 0.60595,-0.33543 0.60594,-0.33544 0.74578,-0.20413 0.74578,-0.20413 0.97884,0.0496 0.97883,0.0496 0.29709,0.12871 0.29709,0.1287 -1.1827,0.002 -1.18271,0.002 -0.74577,0.25772 -0.74578,0.25772 -0.51273,0.28921 -0.51272,0.28921 -0.79842,0.7993 -0.79842,0.79929 -0.38477,0.7924 -0.38477,0.79239 -0.10938,0.60594 -0.10938,0.60595 -0.0762,0.18644 -0.0762,0.18645 z m -0.78614,-1.98917 0.0581,-0.32628 0.21279,-0.48243 0.2128,-0.48242 0.37203,-0.54302 0.37203,-0.54303 0.40528,-0.37289 0.40527,-0.37289 -0.3335,0.37289 -0.33349,0.37289 -0.28358,0.37289 -0.28357,0.37289 -0.25873,0.51273 -0.25874,0.51272 -0.17242,0.46611 -0.17243,0.46611 z m 34.15345,10.25554 -0.69917,-0.18596 -0.7631,-0.37523 -0.76311,-0.37522 -0.73119,-0.54214 -0.73119,-0.54215 -0.42904,-0.50505 -0.42904,-0.50506 -0.38094,-0.59248 -0.38093,-0.59248 -0.27288,-0.71263 -0.27288,-0.71264 -0.15858,-0.72076 -0.15858,-0.72077 0.04,-1.28352 0.04,-1.28351 0.25461,-0.839 0.25461,-0.839 0.41115,-0.84051 0.41115,-0.84051 0.51062,-0.60444 0.51063,-0.60444 0.62705,-0.53517 0.62704,-0.53517 0.79909,-0.40937 0.79908,-0.40938 0.65256,-0.18828 0.65255,-0.18829 0.6776,-0.10236 0.67759,-0.10237 0.44107,0.002 0.44108,0.002 0.74578,0.13381 0.74578,0.13382 0.27967,0.062 0.27966,0.062 0.77781,0.35969 0.7778,0.35968 0.57392,0.41054 0.57392,0.41053 0.52611,0.55294 0.5261,0.55293 0.34641,0.54153 0.34641,0.54152 0.22349,0.50536 0.22349,0.50536 0.18896,0.7051 0.18895,0.7051 -0.0265,0.94549 -0.0264,0.94549 -7.12267,0.0239 -7.12267,0.0239 -0.12537,0.10405 -0.12538,0.10405 2e-5,0.29156 2e-5,0.29156 0.13472,0.69917 0.13472,0.69916 0.14273,0.40169 0.14273,0.40169 0.34604,0.67037 0.34604,0.67037 0.84475,0.84244 0.84474,0.84244 0.839,0.42578 0.839,0.42579 0.46612,0.13011 0.46611,0.13011 1.21189,-0.002 1.21189,-0.002 0.65256,-0.21497 0.65255,-0.21498 0.59474,-0.33056 0.59474,-0.33056 0.61715,-0.51771 0.61716,-0.5177 0.39587,-0.4265 0.39587,-0.42649 0.33442,-0.4937 0.33443,-0.49369 0.43498,0.25064 0.43499,0.25063 0.0718,0.04 0.0718,0.04 -0.29625,0.55583 -0.29625,0.55582 -0.52135,0.61943 -0.52135,0.61942 -0.65256,0.50182 -0.65256,0.50181 -0.93222,0.45221 -0.93222,0.4522 -0.60595,0.15835 -0.60595,0.15834 -1.44494,0.0366 -1.44495,0.0366 z m 8.56095,-9.53768 0.10053,-0.12113 -0.18267,-0.74118 -0.18266,-0.74117 -0.32069,-0.65255 -0.32069,-0.65256 -0.44895,-0.55537 -0.44896,-0.55537 -0.51184,-0.38884 -0.51184,-0.38885 -0.52447,-0.28359 -0.52447,-0.2836 -0.68742,-0.21201 -0.68742,-0.21201 -1.35173,0.009 -1.35172,0.009 -0.73408,0.24195 -0.73408,0.24194 -0.33798,0.20446 -0.33798,0.20446 -0.527,0.40042 -0.527,0.40042 -0.4427,0.58414 -0.44269,0.58414 -0.34845,0.74578 -0.34844,0.74578 -0.1561,0.63578 -0.1561,0.63579 0.11062,0.1333 0.11063,0.1333 h 6.36291 6.3629 z m -52.44577,-1.85606 0.0237,-11.21377 h 0.74578 0.74578 v 11.18668 11.18669 l -0.76947,0.0271 -0.76946,0.0271 z m 28.8988,3.259 0.0238,-7.94721 h 0.74578 0.74578 l 0.0261,1.13289 0.0261,1.13288 0.13317,0.11052 0.13317,0.11052 0.30457,-0.45101 0.30457,-0.45101 0.70144,-0.70636 0.70143,-0.70635 0.72124,-0.35596 0.72124,-0.35597 0.44404,-0.0426 0.44404,-0.0425 0.51273,0.15074 0.51272,0.15075 0.13851,0.0876 0.13852,0.0876 -0.28622,0.58101 -0.28623,0.58101 -0.98807,-0.0246 -0.98807,-0.0246 -0.43311,0.19159 -0.4331,0.19158 -0.35817,0.28368 -0.35817,0.28367 -0.46225,0.62721 -0.46225,0.62721 -0.24161,0.48115 -0.24161,0.48116 -0.18906,0.68225 -0.18907,0.68225 v 5.19902 5.19903 h -0.79291 -0.79291 z m -85.838103,-3.46305 -0.182358,-0.22631 -0.892685,-1.05687 -0.892684,-1.05686 -0.593925,-0.79239 -0.593925,-0.79239 -1.221913,-1.53817 -1.221913,-1.53817 -1.156447,-1.53817 -1.156448,-1.53817 -0.353344,-0.4255 -0.353345,-0.4255 v -0.0639 -0.0639 h 0.750231 0.75023 l 0.222395,0.23997 0.222395,0.23997 0.783945,1.04184 0.783944,1.04184 0.683159,0.93222 0.68316,0.93223 0.842001,1.11867 0.842001,1.11867 1.339083,1.71266 1.339082,1.71267 0.0968,0.155 0.0968,0.155 -0.231723,0.41254 -0.231722,0.41255 -0.08522,0.0284 -0.08522,0.0284 z"
         id="path38" /></g></g></svg>
