<?xml version="1.0" standalone="no"?>
<!DOCTYPE svg PUBLIC "-//W3C//DTD SVG 20010904//EN"
 "http://www.w3.org/TR/2001/REC-SVG-20010904/DTD/svg10.dtd">
<svg version="1.0" xmlns="http://www.w3.org/2000/svg"
 width="300.000000pt" height="73.000000pt" viewBox="0 0 300.000000 73.000000"
 preserveAspectRatio="xMidYMid meet">
<metadata>
Created by potrace 1.10, written by Peter Selinger 2001-2011
</metadata>
<g transform="translate(0.000000,73.000000) scale(0.100000,-0.100000)"
fill="#000000" stroke="none">
<path d="M200 400 l0 -200 130 0 c109 0 130 2 130 15 0 12 -20 15 -117 15
l-118 0 0 80 0 80 103 0 c84 0 102 3 102 15 0 12 -18 15 -102 15 l-103 0 0 75
0 75 118 0 c91 0 118 3 115 13 -3 8 -41 13 -131 15 l-127 3 0 -201z"/>
<path d="M620 585 c-19 -9 -43 -24 -54 -33 -27 -24 -66 -111 -66 -148 0 -77
50 -156 118 -186 159 -71 312 126 219 284 -47 81 -141 117 -217 83z m141 -38
c41 -27 79 -98 79 -147 0 -20 -10 -56 -22 -80 -57 -112 -185 -121 -261 -18
-32 43 -34 132 -5 183 48 82 139 109 209 62z"/>
<path d="M882 592 c12 -27 142 -180 150 -176 5 3 -2 20 -15 37 -13 18 -43 58
-66 90 -24 31 -50 57 -58 57 -8 0 -13 -3 -11 -8z"/>
<path d="M1173 578 c-11 -13 -67 -84 -123 -158 -57 -74 -119 -154 -138 -177
-24 -30 -30 -43 -19 -43 13 0 90 88 138 157 16 24 16 24 84 -67 38 -49 75 -90
82 -90 15 0 -9 36 -90 140 l-43 54 78 103 c43 57 72 103 65 103 -8 0 -23 -10
-34 -22z"/>
<path d="M1325 587 c-58 -27 -85 -79 -65 -127 14 -33 66 -61 149 -80 88 -20
123 -71 83 -120 -35 -43 -162 -42 -209 1 -16 15 -27 19 -33 13 -25 -25 72 -73
147 -74 119 -1 184 111 101 173 -14 10 -56 27 -93 38 -104 29 -134 53 -121
103 14 57 122 78 190 38 26 -15 36 -17 39 -8 14 36 -131 69 -188 43z"/>
<path d="M1938 415 c-3 -159 -1 -185 12 -185 13 0 15 27 15 185 0 138 -3 185
-12 185 -9 0 -13 -49 -15 -185z"/>
<path d="M1685 489 c-11 -6 -31 -21 -44 -33 l-24 -21 5 28 c4 18 1 27 -8 27
-11 0 -14 -35 -14 -180 0 -144 3 -180 13 -180 11 0 13 16 9 75 -2 41 -2 75 1
75 3 0 18 -11 32 -24 37 -34 79 -40 131 -17 54 24 84 70 84 129 0 36 -6 49
-38 83 -31 34 -46 42 -82 45 -25 3 -54 -1 -65 -7z m126 -50 c23 -25 29 -40 29
-76 0 -38 -5 -50 -34 -79 -25 -25 -43 -34 -67 -34 -78 0 -129 68 -108 145 14
48 51 75 106 75 37 0 50 -5 74 -31z"/>
<path d="M2125 480 c-59 -39 -81 -119 -50 -180 21 -41 70 -72 113 -72 69 -1
126 8 130 20 2 7 -1 12 -7 12 -6 0 -2 15 9 33 38 61 17 149 -45 187 -42 26
-110 26 -150 0z m136 -16 c31 -16 59 -66 59 -106 0 -37 -38 -88 -77 -105 -45
-18 -97 -6 -132 30 -21 24 -22 25 -5 68 25 66 56 94 104 94 25 0 34 2 25 8
-16 9 -95 5 -89 -4 5 -8 -31 -40 -38 -34 -3 3 -4 -7 -2 -22 4 -24 3 -25 -5 -8
-8 17 -9 15 -8 -13 0 -18 -3 -35 -6 -39 -14 -13 -7 59 8 87 29 56 105 76 166
44z"/>
<path d="M2100 313 c0 -5 10 -18 23 -29 l22 -19 -20 25 c-11 14 -21 27 -22 29
-2 2 -3 0 -3 -6z"/>
<path d="M2188 253 c7 -3 16 -2 19 1 4 3 -2 6 -13 5 -11 0 -14 -3 -6 -6z"/>
<path d="M2455 475 c-23 -22 -25 -23 -25 -5 0 11 -7 20 -15 20 -13 0 -15 -21
-15 -130 0 -109 2 -130 15 -130 12 0 15 17 15 94 0 79 3 97 21 120 11 15 30
26 44 26 12 0 25 7 29 15 9 25 -42 18 -69 -10z"/>
<path d="M2613 480 c-89 -54 -94 -172 -10 -232 54 -39 152 -21 186 34 21 33 4
33 -34 -1 -62 -54 -141 -38 -171 35 -8 18 -14 36 -14 39 0 3 54 5 120 5 133 0
133 0 106 65 -29 68 -118 95 -183 55z m138 -39 c53 -53 43 -61 -76 -61 -58 0
-105 2 -105 5 0 15 32 65 47 74 10 6 37 11 61 11 35 0 49 -6 73 -29z"/>
<path d="M2338 241 c1 -3 -7 -10 -19 -16 -20 -11 -19 -14 33 -70 51 -54 55
-57 71 -41 14 14 14 20 4 33 -15 19 -93 101 -89 94z m54 -65 l21 -31 -36 34
c-21 19 -37 39 -37 44 0 14 28 -11 52 -47z m23 -46 c-3 -5 -11 -10 -16 -10 -6
0 -7 5 -4 10 3 6 11 10 16 10 6 0 7 -4 4 -10z"/>
</g>
</svg>
